<svg xmlns="http://www.w3.org/2000/svg" xmlns:xlink="http://www.w3.org/1999/xlink" contentStyleType="text/css" height="1204px" preserveAspectRatio="none" style="width:1472px;height:1204px;background:#FFFFFF;" version="1.1" viewBox="0 0 1472 1204" width="1472px" zoomAndPan="magnify"><defs/><g><!--cluster commands--><g id="cluster_commands"><path d="M8.5,6.0137 L83.4102,6.0137 A3.75,3.75 0 0 1 85.9102,8.5137 L92.9102,30.6348 L1462.5,30.6348 A2.5,2.5 0 0 1 1465,33.1348 L1465,1194.5137 A2.5,2.5 0 0 1 1462.5,1197.0137 L8.5,1197.0137 A2.5,2.5 0 0 1 6,1194.5137 L6,8.5137 A2.5,2.5 0 0 1 8.5,6.0137 " fill="none" style="stroke:#000000;stroke-width:1.5;"/><line style="stroke:#000000;stroke-width:1.5;" x1="6" x2="92.9102" y1="30.6348" y2="30.6348"/><text fill="#000000" font-family="sans-serif" font-size="14" font-weight="bold" lengthAdjust="spacing" textLength="73.9102" x="10" y="23.1211">commands</text></g><!--class Command--><g id="elem_Command"><rect codeLine="8" fill="#F1F1F1" height="156.3477" id="Command" rx="2.5" ry="2.5" style="stroke:#181818;stroke-width:0.5;" width="282.4297" x="627" y="297.0137"/><text fill="#000000" font-family="sans-serif" font-size="14" lengthAdjust="spacing" textLength="59.1514" x="736.6943" y="317.1211">{abstract}</text><text fill="#000000" font-family="sans-serif" font-size="14" lengthAdjust="spacing" textLength="64.5791" x="737.8701" y="335.7422">Command</text><line style="stroke:#181818;stroke-width:0.5;" x1="628" x2="908.4297" y1="344.2559" y2="344.2559"/><text fill="#000000" font-family="sans-serif" font-size="14" lengthAdjust="spacing" textLength="138.9131" x="633" y="363.3633">+screen : ScreenState</text><line style="stroke:#181818;stroke-width:0.5;" x1="628" x2="908.4297" y1="370.877" y2="370.877"/><text fill="#000000" font-family="sans-serif" font-size="14" lengthAdjust="spacing" textLength="82.0791" x="633" y="389.9844">+Command()</text><text fill="#000000" font-family="sans-serif" font-size="14" lengthAdjust="spacing" textLength="159.127" x="633" y="408.6055">+Command(ScreenState)</text><text fill="#000000" font-family="sans-serif" font-size="14" lengthAdjust="spacing" textLength="182.4648" x="633" y="427.2266">+execute() : CommandResult</text><text fill="#000000" font-family="sans-serif" font-size="14" lengthAdjust="spacing" textLength="270.4297" x="633" y="445.8477">+execute(Catalogue&lt;?&gt;) : CommandResult</text></g><!--class AddCommand--><g id="elem_AddCommand"><rect codeLine="16" fill="#F1F1F1" height="137.7266" id="AddCommand" rx="2.5" ry="2.5" style="stroke:#181818;stroke-width:0.5;" width="282.4297" x="284" y="513.0137"/><text fill="#000000" font-family="sans-serif" font-size="14" lengthAdjust="spacing" textLength="89.4893" x="380.4702" y="533.1211">AddCommand</text><line style="stroke:#181818;stroke-width:0.5;" x1="285" x2="565.4297" y1="541.6348" y2="541.6348"/><text fill="#000000" font-family="sans-serif" font-size="14" lengthAdjust="spacing" textLength="87.9238" x="290" y="560.7422">-name : String</text><text fill="#000000" font-family="sans-serif" font-size="14" lengthAdjust="spacing" textLength="80.1514" x="290" y="579.3633">-quantity : int</text><line style="stroke:#181818;stroke-width:0.5;" x1="285" x2="565.4297" y1="586.877" y2="586.877"/><text fill="#000000" font-family="sans-serif" font-size="14" lengthAdjust="spacing" textLength="166.127" x="290" y="605.9844">+AddCommand(String, int)</text><text fill="#000000" font-family="sans-serif" font-size="14" lengthAdjust="spacing" textLength="143.5615" x="290" y="624.6055">+AddCommand(String)</text><text fill="#000000" font-family="sans-serif" font-size="14" lengthAdjust="spacing" textLength="270.4297" x="290" y="643.2266">+execute(Catalogue&lt;?&gt;) : CommandResult</text></g><!--class BackCommand--><g id="elem_BackCommand"><rect codeLine="24" fill="#F1F1F1" height="73.8633" id="BackCommand" rx="2.5" ry="2.5" style="stroke:#181818;stroke-width:0.5;" width="194.4648" x="409" y="711.0137"/><text fill="#000000" font-family="sans-serif" font-size="14" lengthAdjust="spacing" textLength="95.7031" x="458.3809" y="731.1211">BackCommand</text><line style="stroke:#181818;stroke-width:0.5;" x1="410" x2="602.4648" y1="739.6348" y2="739.6348"/><text fill="#000000" font-family="sans-serif" font-size="14" lengthAdjust="spacing" textLength="113.2031" x="415" y="758.7422">+BackCommand()</text><text fill="#000000" font-family="sans-serif" font-size="14" lengthAdjust="spacing" textLength="182.4648" x="415" y="777.3633">+execute() : CommandResult</text></g><!--class ByeCommand--><g id="elem_ByeCommand"><rect codeLine="29" fill="#F1F1F1" height="73.8633" id="ByeCommand" rx="2.5" ry="2.5" style="stroke:#181818;stroke-width:0.5;" width="194.4648" x="22" y="877.0137"/><text fill="#000000" font-family="sans-serif" font-size="14" lengthAdjust="spacing" textLength="88.7031" x="74.8809" y="897.1211">ByeCommand</text><line style="stroke:#181818;stroke-width:0.5;" x1="23" x2="215.4648" y1="905.6348" y2="905.6348"/><text fill="#000000" font-family="sans-serif" font-size="14" lengthAdjust="spacing" textLength="106.2031" x="28" y="924.7422">+ByeCommand()</text><text fill="#000000" font-family="sans-serif" font-size="14" lengthAdjust="spacing" textLength="182.4648" x="28" y="943.3633">+execute() : CommandResult</text></g><!--class CommandResult--><g id="elem_CommandResult"><rect codeLine="34" fill="#F1F1F1" height="193.5898" id="CommandResult" rx="2.5" ry="2.5" style="stroke:#181818;stroke-width:0.5;" width="255.1611" x="640.5" y="43.0137"/><text fill="#000000" font-family="sans-serif" font-size="14" lengthAdjust="spacing" textLength="104.2617" x="715.9497" y="63.1211">CommandResult</text><line style="stroke:#181818;stroke-width:0.5;" x1="641.5" x2="894.6611" y1="71.6348" y2="71.6348"/><text fill="#000000" font-family="sans-serif" font-size="14" lengthAdjust="spacing" textLength="155.6201" x="646.5" y="90.7422">-feedbackToUser : String</text><text fill="#000000" font-family="sans-serif" font-size="14" lengthAdjust="spacing" textLength="163.4199" x="646.5" y="109.3633">-newScreen : ScreenState</text><line style="stroke:#181818;stroke-width:0.5;" x1="641.5" x2="894.6611" y1="116.877" y2="116.877"/><text fill="#000000" font-family="sans-serif" font-size="14" lengthAdjust="spacing" textLength="158.334" x="646.5" y="135.9844">+CommandResult(String)</text><text fill="#000000" font-family="sans-serif" font-size="14" lengthAdjust="spacing" textLength="198.8096" x="646.5" y="154.6055">+CommandResult(ScreenState)</text><text fill="#000000" font-family="sans-serif" font-size="14" lengthAdjust="spacing" textLength="243.1611" x="646.5" y="173.2266">+CommandResult(String, ScreenState)</text><text fill="#000000" font-family="sans-serif" font-size="14" lengthAdjust="spacing" textLength="192.582" x="646.5" y="191.8477">+getFeedbackToUser() : String</text><text fill="#000000" font-family="sans-serif" font-size="14" lengthAdjust="spacing" textLength="198.0439" x="646.5" y="210.4688">+getNewScreen() : ScreenState</text><text fill="#000000" font-family="sans-serif" font-size="14" lengthAdjust="spacing" textLength="174.6992" x="646.5" y="229.0898">+isScreenSwitch() : boolean</text></g><!--class CookableRecipesCommand--><g id="elem_CookableRecipesCommand"><rect codeLine="45" fill="#F1F1F1" height="137.7266" id="CookableRecipesCommand" rx="2.5" ry="2.5" style="stroke:#181818;stroke-width:0.5;" width="426.3809" x="251" y="845.0137"/><text fill="#000000" font-family="sans-serif" font-size="14" lengthAdjust="spacing" textLength="174.3096" x="377.0356" y="865.1211">CookableRecipesCommand</text><line style="stroke:#181818;stroke-width:0.5;" x1="252" x2="676.3809" y1="873.6348" y2="873.6348"/><text fill="#000000" font-family="sans-serif" font-size="14" lengthAdjust="spacing" textLength="161.8613" x="257" y="892.7422">-recipeBook : RecipeBook</text><line style="stroke:#181818;stroke-width:0.5;" x1="252" x2="676.3809" y1="900.2559" y2="900.2559"/><text fill="#000000" font-family="sans-serif" font-size="14" lengthAdjust="spacing" textLength="191.8096" x="257" y="919.3633">+CookableRecipesCommand()</text><text fill="#000000" font-family="sans-serif" font-size="14" lengthAdjust="spacing" textLength="414.3809" x="257" y="937.9844">+getCookableRecipes(RecipeBook, Inventory) : ArrayList&lt;Recipe&gt;</text><text fill="#000000" font-family="sans-serif" font-size="14" lengthAdjust="spacing" textLength="404.6533" x="257" y="956.6055">-findIngredientByName(ArrayList&lt;Ingredient&gt;, String) : Ingredient</text><text fill="#000000" font-family="sans-serif" font-size="14" lengthAdjust="spacing" textLength="270.4297" x="257" y="975.2266">+execute(Catalogue&lt;?&gt;) : CommandResult</text></g><!--class CookRecipeCommand--><g id="elem_CookRecipeCommand"><rect codeLine="53" fill="#F1F1F1" height="119.1055" id="CookRecipeCommand" rx="2.5" ry="2.5" style="stroke:#181818;stroke-width:0.5;" width="368.7949" x="52.5" y="1052.5137"/><text fill="#000000" font-family="sans-serif" font-size="14" lengthAdjust="spacing" textLength="140.8408" x="166.4771" y="1072.6211">CookRecipeCommand</text><line style="stroke:#181818;stroke-width:0.5;" x1="53.5" x2="420.2949" y1="1081.1348" y2="1081.1348"/><text fill="#000000" font-family="sans-serif" font-size="14" lengthAdjust="spacing" textLength="139.2891" x="58.5" y="1100.2422">-targetRecipe : Recipe</text><line style="stroke:#181818;stroke-width:0.5;" x1="53.5" x2="420.2949" y1="1107.7559" y2="1107.7559"/><text fill="#000000" font-family="sans-serif" font-size="14" lengthAdjust="spacing" textLength="201.9199" x="58.5" y="1126.8633">+CookRecipeCommand(Recipe)</text><text fill="#000000" font-family="sans-serif" font-size="14" lengthAdjust="spacing" textLength="356.7949" x="58.5" y="1145.4844">+getMissingIngredients(Inventory) : ArrayList&lt;Ingredient&gt;</text><text fill="#000000" font-family="sans-serif" font-size="14" lengthAdjust="spacing" textLength="335.0361" x="58.5" y="1164.1055">+execute(Catalogue&lt;?&gt; catalogue) : CommandResult</text></g><!--class DeleteCommand--><g id="elem_DeleteCommand"><rect codeLine="60" fill="#F1F1F1" height="137.7266" id="DeleteCommand" rx="2.5" ry="2.5" style="stroke:#181818;stroke-width:0.5;" width="347.0361" x="456.5" y="1043.0137"/><text fill="#000000" font-family="sans-serif" font-size="14" lengthAdjust="spacing" textLength="105.0479" x="577.4941" y="1063.1211">DeleteCommand</text><line style="stroke:#181818;stroke-width:0.5;" x1="457.5" x2="802.5361" y1="1071.6348" y2="1071.6348"/><text fill="#000000" font-family="sans-serif" font-size="14" lengthAdjust="spacing" textLength="87.9238" x="462.5" y="1090.7422">-name : String</text><text fill="#000000" font-family="sans-serif" font-size="14" lengthAdjust="spacing" textLength="80.1514" x="462.5" y="1109.3633">-quantity : int</text><line style="stroke:#181818;stroke-width:0.5;" x1="457.5" x2="802.5361" y1="1116.877" y2="1116.877"/><text fill="#000000" font-family="sans-serif" font-size="14" lengthAdjust="spacing" textLength="181.6855" x="462.5" y="1135.9844">+DeleteCommand(String, int)</text><text fill="#000000" font-family="sans-serif" font-size="14" lengthAdjust="spacing" textLength="159.1201" x="462.5" y="1154.6055">+DeleteCommand(String)</text><text fill="#000000" font-family="sans-serif" font-size="14" lengthAdjust="spacing" textLength="335.0361" x="462.5" y="1173.2266">+execute(Catalogue&lt;?&gt; catalogue) : CommandResult</text></g><!--class EditIngredientCommand--><g id="elem_EditIngredientCommand"><rect codeLine="68" fill="#F1F1F1" height="119.1055" id="EditIngredientCommand" rx="2.5" ry="2.5" style="stroke:#181818;stroke-width:0.5;" width="347.0361" x="838.5" y="1052.5137"/><text fill="#000000" font-family="sans-serif" font-size="14" lengthAdjust="spacing" textLength="150.9717" x="936.5322" y="1072.6211">EditIngredientCommand</text><line style="stroke:#181818;stroke-width:0.5;" x1="839.5" x2="1184.5361" y1="1081.1348" y2="1081.1348"/><text fill="#000000" font-family="sans-serif" font-size="14" lengthAdjust="spacing" textLength="87.9238" x="844.5" y="1100.2422">-name : String</text><text fill="#000000" font-family="sans-serif" font-size="14" lengthAdjust="spacing" textLength="80.1514" x="844.5" y="1118.8633">-quantity : int</text><line style="stroke:#181818;stroke-width:0.5;" x1="839.5" x2="1184.5361" y1="1126.377" y2="1126.377"/><text fill="#000000" font-family="sans-serif" font-size="14" lengthAdjust="spacing" textLength="227.6094" x="844.5" y="1145.4844">+EditIngredientCommand(String, int)</text><text fill="#000000" font-family="sans-serif" font-size="14" lengthAdjust="spacing" textLength="335.0361" x="844.5" y="1164.1055">+execute(Catalogue&lt;?&gt; catalogue) : CommandResult</text></g><!--class EditRecipeCommand--><g id="elem_EditRecipeCommand"><rect codeLine="75" fill="#F1F1F1" height="100.4844" id="EditRecipeCommand" rx="2.5" ry="2.5" style="stroke:#181818;stroke-width:0.5;" width="198.3545" x="1221" y="1062.0137"/><text fill="#000000" font-family="sans-serif" font-size="14" lengthAdjust="spacing" textLength="132.2822" x="1254.0361" y="1082.1211">EditRecipeCommand</text><line style="stroke:#181818;stroke-width:0.5;" x1="1222" x2="1418.3545" y1="1090.6348" y2="1090.6348"/><text fill="#000000" font-family="sans-serif" font-size="14" lengthAdjust="spacing" textLength="128.3789" x="1227" y="1109.7422">-recipeName : String</text><line style="stroke:#181818;stroke-width:0.5;" x1="1222" x2="1418.3545" y1="1117.2559" y2="1117.2559"/><text fill="#000000" font-family="sans-serif" font-size="14" lengthAdjust="spacing" textLength="186.3545" x="1227" y="1136.3633">+EditRecipeCommand(String)</text><text fill="#000000" font-family="sans-serif" font-size="14" lengthAdjust="spacing" textLength="182.4648" x="1227" y="1154.9844">+execute() : CommandResult</text></g><!--class FindCommand--><g id="elem_FindCommand"><rect codeLine="81" fill="#F1F1F1" height="100.4844" id="FindCommand" rx="2.5" ry="2.5" style="stroke:#181818;stroke-width:0.5;" width="347.0361" x="860.5" y="864.0137"/><text fill="#000000" font-family="sans-serif" font-size="14" lengthAdjust="spacing" textLength="91.8135" x="988.1113" y="884.1211">FindCommand</text><line style="stroke:#181818;stroke-width:0.5;" x1="861.5" x2="1206.5361" y1="892.6348" y2="892.6348"/><text fill="#000000" font-family="sans-serif" font-size="14" lengthAdjust="spacing" textLength="105.0342" x="866.5" y="911.7422">-keyword : String</text><line style="stroke:#181818;stroke-width:0.5;" x1="861.5" x2="1206.5361" y1="919.2559" y2="919.2559"/><text fill="#000000" font-family="sans-serif" font-size="14" lengthAdjust="spacing" textLength="145.8857" x="866.5" y="938.3633">+FindCommand(String)</text><text fill="#000000" font-family="sans-serif" font-size="14" lengthAdjust="spacing" textLength="335.0361" x="866.5" y="956.9844">+execute(Catalogue&lt;?&gt; catalogue) : CommandResult</text></g><!--class GoToCommand--><g id="elem_GoToCommand"><rect codeLine="87" fill="#F1F1F1" height="73.8633" id="GoToCommand" rx="2.5" ry="2.5" style="stroke:#181818;stroke-width:0.5;" width="206.1406" x="1243" y="877.0137"/><text fill="#000000" font-family="sans-serif" font-size="14" lengthAdjust="spacing" textLength="99.5928" x="1296.2739" y="897.1211">GoToCommand</text><line style="stroke:#181818;stroke-width:0.5;" x1="1244" x2="1448.1406" y1="905.6348" y2="905.6348"/><text fill="#000000" font-family="sans-serif" font-size="14" lengthAdjust="spacing" textLength="194.1406" x="1249" y="924.7422">+GoToCommand(ScreenState)</text><text fill="#000000" font-family="sans-serif" font-size="14" lengthAdjust="spacing" textLength="182.4648" x="1249" y="943.3633">+execute() : CommandResult</text></g><!--class ListCommand--><g id="elem_ListCommand"><rect codeLine="92" fill="#F1F1F1" height="55.2422" id="ListCommand" rx="2.5" ry="2.5" style="stroke:#181818;stroke-width:0.5;" width="347.0361" x="934.5" y="720.5137"/><text fill="#000000" font-family="sans-serif" font-size="14" lengthAdjust="spacing" textLength="86.3652" x="1064.8354" y="740.6211">ListCommand</text><line style="stroke:#181818;stroke-width:0.5;" x1="935.5" x2="1280.5361" y1="749.1348" y2="749.1348"/><text fill="#000000" font-family="sans-serif" font-size="14" lengthAdjust="spacing" textLength="335.0361" x="940.5" y="768.2422">+execute(Catalogue&lt;?&gt; catalogue) : CommandResult</text></g><!--class ListCommandsCommand--><g id="elem_ListCommandsCommand"><rect codeLine="96" fill="#F1F1F1" height="73.8633" id="ListCommandsCommand" rx="2.5" ry="2.5" style="stroke:#181818;stroke-width:0.5;" width="264.4922" x="971" y="545.0137"/><text fill="#000000" font-family="sans-serif" font-size="14" lengthAdjust="spacing" textLength="157.9443" x="1024.2739" y="565.1211">ListCommandsCommand</text><line style="stroke:#181818;stroke-width:0.5;" x1="972" x2="1234.4922" y1="573.6348" y2="573.6348"/><text fill="#000000" font-family="sans-serif" font-size="14" lengthAdjust="spacing" textLength="252.4922" x="977" y="592.7422">+ListCommandsCommand(ScreenState)</text><text fill="#000000" font-family="sans-serif" font-size="14" lengthAdjust="spacing" textLength="182.4648" x="977" y="611.3633">+execute() : CommandResult</text></g><!--reverse link Command to AddCommand--><g id="link_Command_AddCommand"><path codeLine="102" d="M639.5,471.3637 C639.5,509.4137 639.5,529.0137 639.5,529.0137 C639.5,529.0137 606.44,529.0137 566.28,529.0137 " fill="none" id="Command-backto-AddCommand" style="stroke:#181818;stroke-width:1.0;"/><polygon fill="none" points="639.5,453.3637,633.5,471.3637,645.5,471.3637,639.5,453.3637" style="stroke:#181818;stroke-width:1.0;"/></g><!--reverse link Command to BackCommand--><g id="link_Command_BackCommand"><path codeLine="103" d="M652,471.2437 C652,571.9237 652,716.0137 652,716.0137 C652,716.0137 630.17,716.0137 603.38,716.0137 " fill="none" id="Command-backto-BackCommand" style="stroke:#181818;stroke-width:1.0;"/><polygon fill="none" points="652,453.2437,646,471.2437,658,471.2437,652,453.2437" style="stroke:#181818;stroke-width:1.0;"/></g><!--reverse link Command to ByeCommand--><g id="link_Command_ByeCommand"><path codeLine="104" d="M608.78,349.0137 C417.86,349.0137 119,349.0137 119,349.0137 C119,349.0137 119,751.2437 119,876.9437 " fill="none" id="Command-backto-ByeCommand" style="stroke:#181818;stroke-width:1.0;"/><polygon fill="none" points="626.78,349.0137,608.78,343.0137,608.78,355.0137,626.78,349.0137" style="stroke:#181818;stroke-width:1.0;"/></g><!--reverse link Command to CookableRecipesCommand--><g id="link_Command_CookableRecipesCommand"><path codeLine="105" d="M664.5,471.1037 C664.5,576.4237 664.5,744.3637 664.5,844.8737 " fill="none" id="Command-backto-CookableRecipesCommand" style="stroke:#181818;stroke-width:1.0;"/><polygon fill="none" points="664.5,453.1037,658.5,471.1037,670.5,471.1037,664.5,453.1037" style="stroke:#181818;stroke-width:1.0;"/></g><!--reverse link Command to CookRecipeCommand--><g id="link_Command_CookRecipeCommand"><path codeLine="106" d="M608.87,401.0137 C450.51,401.0137 233.5,401.0137 233.5,401.0137 C233.5,401.0137 233.5,881.1637 233.5,1052.3137 " fill="none" id="Command-backto-CookRecipeCommand" style="stroke:#181818;stroke-width:1.0;"/><polygon fill="none" points="626.87,401.0137,608.87,395.0137,608.87,407.0137,626.87,401.0137" style="stroke:#181818;stroke-width:1.0;"/></g><!--reverse link Command to DeleteCommand--><g id="link_Command_DeleteCommand"><path codeLine="107" d="M740.25,471.1837 C740.25,615.8537 740.25,905.0937 740.25,1042.7637 " fill="none" id="Command-backto-DeleteCommand" style="stroke:#181818;stroke-width:1.0;"/><polygon fill="none" points="740.25,453.1837,734.25,471.1837,746.25,471.1837,740.25,453.1837" style="stroke:#181818;stroke-width:1.0;"/></g><!--reverse link Command to EditIngredientCommand--><g id="link_Command_EditIngredientCommand"><path codeLine="108" d="M849.5,471.1837 C849.5,619.3737 849.5,920.1337 849.5,1052.5037 " fill="none" id="Command-backto-EditIngredientCommand" style="stroke:#181818;stroke-width:1.0;"/><polygon fill="none" points="849.5,453.1837,843.5,471.1837,855.5,471.1837,849.5,453.1837" style="stroke:#181818;stroke-width:1.0;"/></g><!--reverse link Command to EditRecipeCommand--><g id="link_Command_EditRecipeCommand"><path codeLine="109" d="M879.9,471.2037 C879.9,607.2137 879.9,855.0137 879.9,855.0137 C879.9,855.0137 1232,855.0137 1232,855.0137 C1232,855.0137 1232,987.0637 1232,1061.8537 " fill="none" id="Command-backto-EditRecipeCommand" style="stroke:#181818;stroke-width:1.0;"/><polygon fill="none" points="879.9,453.2037,873.9,471.2037,885.9,471.2037,879.9,453.2037" style="stroke:#181818;stroke-width:1.0;"/></g><!--reverse link Command to FindCommand--><g id="link_Command_FindCommand"><path codeLine="110" d="M870.2,471.1037 C870.2,583.4237 870.2,769.4437 870.2,863.7437 " fill="none" id="Command-backto-FindCommand" style="stroke:#181818;stroke-width:1.0;"/><polygon fill="none" points="870.2,453.1037,864.2,471.1037,876.2,471.1037,870.2,453.1037" style="stroke:#181818;stroke-width:1.0;"/></g><!--reverse link Command to GoToCommand--><g id="link_Command_GoToCommand"><path codeLine="111" d="M927.16,375.0137 C1103.76,375.0137 1365.25,375.0137 1365.25,375.0137 C1365.25,375.0137 1365.25,755.1937 1365.25,876.9637 " fill="none" id="Command-backto-GoToCommand" style="stroke:#181818;stroke-width:1.0;"/><polygon fill="none" points="909.16,375.0137,927.16,381.0137,927.16,369.0137,909.16,375.0137" style="stroke:#181818;stroke-width:1.0;"/></g><!--reverse link Command to ListCommand--><g id="link_Command_ListCommand"><path codeLine="112" d="M889.6,471.2037 C889.6,580.5837 889.6,748.0137 889.6,748.0137 C889.6,748.0137 908.1,748.0137 934.32,748.0137 " fill="none" id="Command-backto-ListCommand" style="stroke:#181818;stroke-width:1.0;"/><polygon fill="none" points="889.6,453.2037,883.6,471.2037,895.6,471.2037,889.6,453.2037" style="stroke:#181818;stroke-width:1.0;"/></g><!--reverse link Command to ListCommandsCommand--><g id="link_Command_ListCommandsCommand"><path codeLine="113" d="M899.3,471.2737 C899.3,529.8937 899.3,582.0137 899.3,582.0137 C899.3,582.0137 931.8,582.0137 970.83,582.0137 " fill="none" id="Command-backto-ListCommandsCommand" style="stroke:#181818;stroke-width:1.0;"/><polygon fill="none" points="899.3,453.2737,893.3,471.2737,905.3,471.2737,899.3,453.2737" style="stroke:#181818;stroke-width:1.0;"/></g><!--reverse link CommandResult to Command--><g id="link_CommandResult_Command"><path codeLine="114" d="M768,243.2937 C768,263.1137 768,277.7337 768,296.7937 " fill="none" id="CommandResult-backto-Command" style="stroke:#181818;stroke-width:1.0;stroke-dasharray:7.0,7.0;"/><polygon fill="#181818" points="768,237.2937,764,246.2937,768,242.2937,772,246.2937,768,237.2937" style="stroke:#181818;stroke-width:1.0;"/></g><!--SRC=[jLPBZzem4BxdLrXx2bgowdc5g63RhP1Q3h2zzU8uKx18xDGsfUbs_tkT5x73G17Gd9APRnxVDtvapHCWZ2kMGh0kto7BJK4oo69GEj0RBdAgQ4POIhMU6ADul3KmOr8i-MyWxnn8oWMO8WUIoxGeFp2VL6OjWo2dR4DNjhJCCYeIJLu3Of-g2hbxfR4sYZBpHhu9ybHZxWZLxNi3Bvzxefa24EIHBAkNfQ4677SJ4WuGcnFXkk4NCCio7DYa3NG1UfiQ1FD43KtbQWkZzsCS_nOut2P9SiWX8e9cK3Am-egLO_-nfS9mEv57meLRliiJra734Z0uXHXSt_tKZWqRWMCFpnVIJrq0cdbllZInv_P4_mwGnBRp5_bLWyBa5x1RdhMwwko8q3q_ljwm94Do1Bm2y-mrNedGQxs2pTlkQmJQFzUDVSSDMrV0MCeKgC2Kb1iQfx00ndFGs3fMbMjgWJRHOl_XSSMIX3s6FLJOfHgIcVW9maXLbCrEbAB5PwxDg8QCtVboaSp4Ia72RS2qcDjD5dO1dMiyRFGhCtRcw_TBIQFk2nFBK6MfrlwzN3sflEX6XfvMNxZMjlUkRnqUaSXX_0zkXBKVPx3y02aOkCcnvgKwTh9XeC4j2NrCkEcqkWanDEKnWZSXS7pTrPjqZbAuFumzeV0PhJpRJOWriO5Y9rM2TU24_8_fVf8l4hjg7FjbFmPUbNB3OLMkRjz9hB42YFzIEhPkMs7q9ugSNmhF7hdtl- -9d0kyxy5lWXugEZm53n3UUN3WHNSUYZfLnLsKVPUpS7gwEBFmbKI65FW_AgE7XtOcVm40]--></g></svg>