<svg xmlns="http://www.w3.org/2000/svg" xmlns:xlink="http://www.w3.org/1999/xlink" contentStyleType="text/css" height="1005px" preserveAspectRatio="none" style="width:1343px;height:1005px;background:#FFFFFF;" version="1.1" viewBox="0 0 1343 1005" width="1343px" zoomAndPan="magnify"><defs/><g><!--cluster model--><g id="cluster_model"><path d="M8.5,6.0137 L50.7275,6.0137 A3.75,3.75 0 0 1 53.2275,8.5137 L60.2275,30.6348 L561.5,30.6348 A2.5,2.5 0 0 1 564,33.1348 L564,995.5137 A2.5,2.5 0 0 1 561.5,998.0137 L8.5,998.0137 A2.5,2.5 0 0 1 6,995.5137 L6,8.5137 A2.5,2.5 0 0 1 8.5,6.0137 " fill="none" style="stroke:#000000;stroke-width:1.5;"/><line style="stroke:#000000;stroke-width:1.5;" x1="6" x2="60.2275" y1="30.6348" y2="30.6348"/><text fill="#000000" font-family="sans-serif" font-size="14" font-weight="bold" lengthAdjust="spacing" textLength="41.2275" x="10" y="23.1211">model</text></g><!--cluster catalogue--><g id="cluster_catalogue"><path d="M32.5,51.0137 L98.8516,51.0137 A3.75,3.75 0 0 1 101.3516,53.5137 L108.3516,75.6348 L537.5,75.6348 A2.5,2.5 0 0 1 540,78.1348 L540,971.5137 A2.5,2.5 0 0 1 537.5,974.0137 L32.5,974.0137 A2.5,2.5 0 0 1 30,971.5137 L30,53.5137 A2.5,2.5 0 0 1 32.5,51.0137 " fill="none" style="stroke:#000000;stroke-width:1.5;"/><line style="stroke:#000000;stroke-width:1.5;" x1="30" x2="108.3516" y1="75.6348" y2="75.6348"/><text fill="#000000" font-family="sans-serif" font-size="14" font-weight="bold" lengthAdjust="spacing" textLength="65.3516" x="34" y="68.1211">catalogue</text></g><!--cluster commands--><g id="cluster_commands"><path d="M590.5,783.0137 L665.4102,783.0137 A3.75,3.75 0 0 1 667.9102,785.5137 L674.9102,807.6348 L819.5,807.6348 A2.5,2.5 0 0 1 822,810.1348 L822,915.5137 A2.5,2.5 0 0 1 819.5,918.0137 L590.5,918.0137 A2.5,2.5 0 0 1 588,915.5137 L588,785.5137 A2.5,2.5 0 0 1 590.5,783.0137 " fill="none" style="stroke:#000000;stroke-width:1.5;"/><line style="stroke:#000000;stroke-width:1.5;" x1="588" x2="674.9102" y1="807.6348" y2="807.6348"/><text fill="#000000" font-family="sans-serif" font-size="14" font-weight="bold" lengthAdjust="spacing" textLength="73.9102" x="592" y="800.1211">commands</text></g><!--cluster ui--><g id="cluster_ui"><path d="M590.5,391.0137 L603.9414,391.0137 A3.75,3.75 0 0 1 606.4414,393.5137 L613.4414,415.6348 L1333.5,415.6348 A2.5,2.5 0 0 1 1336,418.1348 L1336,741.5137 A2.5,2.5 0 0 1 1333.5,744.0137 L590.5,744.0137 A2.5,2.5 0 0 1 588,741.5137 L588,393.5137 A2.5,2.5 0 0 1 590.5,391.0137 " fill="none" style="stroke:#000000;stroke-width:1.5;"/><line style="stroke:#000000;stroke-width:1.5;" x1="588" x2="613.4414" y1="415.6348" y2="415.6348"/><text fill="#000000" font-family="sans-serif" font-size="14" font-weight="bold" lengthAdjust="spacing" textLength="12.4414" x="592" y="408.1211">ui</text></g><!--cluster inputparser--><g id="cluster_inputparser"><path d="M614.5,436.0137 L692.5137,436.0137 A3.75,3.75 0 0 1 695.0137,438.5137 L702.0137,460.6348 L1309.5,460.6348 A2.5,2.5 0 0 1 1312,463.1348 L1312,717.5137 A2.5,2.5 0 0 1 1309.5,720.0137 L614.5,720.0137 A2.5,2.5 0 0 1 612,717.5137 L612,438.5137 A2.5,2.5 0 0 1 614.5,436.0137 " fill="none" style="stroke:#000000;stroke-width:1.5;"/><line style="stroke:#000000;stroke-width:1.5;" x1="612" x2="702.0137" y1="460.6348" y2="460.6348"/><text fill="#000000" font-family="sans-serif" font-size="14" font-weight="bold" lengthAdjust="spacing" textLength="77.0137" x="616" y="453.1211">inputparser</text></g><!--class {abstract} \n Catalogue<T>--><g id="elem_{abstract} \n Catalogue&lt;T&gt;"><rect codeLine="6" fill="#F1F1F1" height="286.6953" id="{abstract} \n Catalogue&lt;T&gt;" rx="2.5" ry="2.5" style="stroke:#181818;stroke-width:0.5;" width="475.3535" x="47.5" y="88.0137"/><text fill="#000000" font-family="sans-serif" font-size="14" lengthAdjust="spacing" textLength="59.1514" x="253.6563" y="108.1211">{abstract}</text><text fill="#000000" font-family="sans-serif" font-size="14" lengthAdjust="spacing" textLength="88.7305" x="242.7563" y="126.7422">Catalogue&lt;T&gt;</text><line style="stroke:#181818;stroke-width:0.5;" x1="48.5" x2="521.8535" y1="135.2559" y2="135.2559"/><text fill="#000000" font-family="sans-serif" font-size="14" lengthAdjust="spacing" textLength="129.917" x="53.5" y="154.3633">-items : ArrayList&lt;T&gt;</text><line style="stroke:#181818;stroke-width:0.5;" x1="48.5" x2="521.8535" y1="161.877" y2="161.877"/><text fill="#000000" font-family="sans-serif" font-size="14" lengthAdjust="spacing" textLength="81.3271" x="53.5" y="180.9844">+Catalogue()</text><text fill="#000000" font-family="sans-serif" font-size="14" lengthAdjust="spacing" textLength="162.9961" x="53.5" y="199.6055">+getItems() : ArrayList&lt;T&gt;</text><text fill="#000000" font-family="sans-serif" font-size="14" lengthAdjust="spacing" textLength="234.5889" x="53.5" y="218.2266">+updateItem(oldItem : T, newItem : T)</text><text fill="#000000" font-family="sans-serif" font-size="14" lengthAdjust="spacing" textLength="184.7686" x="53.5" y="236.8477">+listItems() : CommandResult</text><text fill="#000000" font-family="sans-serif" font-size="14" lengthAdjust="spacing" textLength="198.0645" x="53.5" y="255.4688">+getCatalogueContent() : String</text><text fill="#000000" font-family="sans-serif" font-size="14" lengthAdjust="spacing" textLength="363.7744" x="53.5" y="274.0898">+addItem(item : T, isSilenced : boolean) : CommandResult</text><text fill="#000000" font-family="sans-serif" font-size="14" lengthAdjust="spacing" textLength="245.4717" x="53.5" y="292.7109">+deleteItem(item : T) : CommandResult</text><text fill="#000000" font-family="sans-serif" font-size="14" lengthAdjust="spacing" textLength="463.3535" x="53.5" y="311.332">+findItem(query : String, extractor : Function&lt;T, String&gt;) : CommandResult</text><text fill="#000000" font-family="sans-serif" font-size="14" lengthAdjust="spacing" textLength="266.4922" x="53.5" y="329.9531">+findItem(query : String) : CommandResult</text><text fill="#000000" font-family="sans-serif" font-size="14" lengthAdjust="spacing" textLength="116.3271" x="53.5" y="348.5742">+getType() : String</text><text fill="#000000" font-family="sans-serif" font-size="14" lengthAdjust="spacing" textLength="221.3545" x="53.5" y="367.1953">+getItemByName(name : String) : T</text></g><!--class RecipeBook--><g id="elem_RecipeBook"><rect codeLine="21" fill="#F1F1F1" height="230.832" id="RecipeBook" rx="2.5" ry="2.5" style="stroke:#181818;stroke-width:0.5;" width="477.3428" x="46.5" y="473.0137"/><text fill="#000000" font-family="sans-serif" font-size="14" lengthAdjust="spacing" textLength="75.4893" x="247.4268" y="493.1211">RecipeBook</text><line style="stroke:#181818;stroke-width:0.5;" x1="47.5" x2="522.8428" y1="501.6348" y2="501.6348"/><line style="stroke:#181818;stroke-width:0.5;" x1="47.5" x2="522.8428" y1="509.6348" y2="509.6348"/><text fill="#000000" font-family="sans-serif" font-size="14" lengthAdjust="spacing" textLength="92.9893" x="52.5" y="528.7422">+RecipeBook()</text><text fill="#000000" font-family="sans-serif" font-size="14" lengthAdjust="spacing" textLength="269.6162" x="52.5" y="547.3633">+addItem(recipe: Recipe): CommandResult</text><text fill="#000000" font-family="sans-serif" font-size="14" lengthAdjust="spacing" textLength="284.4023" x="52.5" y="565.9844">+deleteItem(recipe: Recipe): CommandResult</text><text fill="#000000" font-family="sans-serif" font-size="14" lengthAdjust="spacing" textLength="421.3604" x="52.5" y="584.6055">+editItem(oldRecipe: Recipe, newRecipe: Recipe): CommandResult</text><text fill="#000000" font-family="sans-serif" font-size="14" lengthAdjust="spacing" textLength="180.8789" x="52.5" y="603.2266">+listItems(): CommandResult</text><text fill="#000000" font-family="sans-serif" font-size="14" lengthAdjust="spacing" textLength="203.875" x="52.5" y="621.8477">-addRecipe(recipe: Recipe): void</text><text fill="#000000" font-family="sans-serif" font-size="14" lengthAdjust="spacing" textLength="227.1992" x="52.5" y="640.4688">-removeRecipe(recipe: Recipe): void</text><text fill="#000000" font-family="sans-serif" font-size="14" lengthAdjust="spacing" textLength="315.916" x="52.5" y="659.0898">-getRecipeNameLowercase(recipe: Recipe): String</text><text fill="#000000" font-family="sans-serif" font-size="14" lengthAdjust="spacing" textLength="465.3428" x="52.5" y="677.7109">-isExactMatchFound(existingRecipe: Recipe, newRecipe: Recipe): boolean</text><text fill="#000000" font-family="sans-serif" font-size="14" lengthAdjust="spacing" textLength="358.3125" x="52.5" y="696.332">+searchSimilarRecipe(recipe: Recipe): ArrayList&lt;Recipe&gt;</text></g><!--class Recipe--><g id="elem_Recipe"><rect codeLine="34" fill="#F1F1F1" height="193.5898" id="Recipe" rx="2.5" ry="2.5" style="stroke:#181818;stroke-width:0.5;" width="378.1328" x="96" y="764.0137"/><text fill="#000000" font-family="sans-serif" font-size="14" lengthAdjust="spacing" textLength="43.5791" x="263.2769" y="784.1211">Recipe</text><line style="stroke:#181818;stroke-width:0.5;" x1="97" x2="473.1328" y1="792.6348" y2="792.6348"/><text fill="#000000" font-family="sans-serif" font-size="14" lengthAdjust="spacing" textLength="128.3789" x="102" y="811.7422">-recipeName : String</text><line style="stroke:#181818;stroke-width:0.5;" x1="97" x2="473.1328" y1="819.2559" y2="819.2559"/><text fill="#000000" font-family="sans-serif" font-size="14" lengthAdjust="spacing" textLength="61.0791" x="102" y="838.3633">+Recipe()</text><text fill="#000000" font-family="sans-serif" font-size="14" lengthAdjust="spacing" textLength="144.3408" x="102" y="856.9844">+Recipe(name : String)</text><text fill="#000000" font-family="sans-serif" font-size="14" lengthAdjust="spacing" textLength="366.1328" x="102" y="875.6055">+Recipe(name : String, ingredients : ArrayList&lt;Ingredient&gt;)</text><text fill="#000000" font-family="sans-serif" font-size="14" lengthAdjust="spacing" textLength="166.127" x="102" y="894.2266">+getRecipeName() : String</text><text fill="#000000" font-family="sans-serif" font-size="14" lengthAdjust="spacing" textLength="116.3271" x="102" y="912.8477">+getType() : String</text><text fill="#000000" font-family="sans-serif" font-size="14" lengthAdjust="spacing" textLength="184.7686" x="102" y="931.4688">+listItems() : CommandResult</text><text fill="#000000" font-family="sans-serif" font-size="14" lengthAdjust="spacing" textLength="113.9893" x="102" y="950.0898">+toString() : String</text></g><!--class CommandResult--><g id="elem_CommandResult"><rect codeLine="49" fill="#F1F1F1" height="81.8633" id="CommandResult" rx="2.5" ry="2.5" style="stroke:#181818;stroke-width:0.5;" width="200.6924" x="604.5" y="820.0137"/><text fill="#000000" font-family="sans-serif" font-size="14" lengthAdjust="spacing" textLength="104.2617" x="652.7153" y="840.1211">CommandResult</text><line style="stroke:#181818;stroke-width:0.5;" x1="605.5" x2="804.1924" y1="848.6348" y2="848.6348"/><text fill="#000000" font-family="sans-serif" font-size="14" lengthAdjust="spacing" textLength="151.7305" x="610.5" y="867.7422">-feedbackToUser: String</text><line style="stroke:#181818;stroke-width:0.5;" x1="605.5" x2="804.1924" y1="875.2559" y2="875.2559"/><text fill="#000000" font-family="sans-serif" font-size="14" lengthAdjust="spacing" textLength="188.6924" x="610.5" y="894.3633">+getFeedbackToUser(): String</text></g><!--class ConflictHelper--><g id="elem_ConflictHelper"><rect codeLine="56" fill="#F1F1F1" height="230.832" id="ConflictHelper" rx="2.5" ry="2.5" style="stroke:#181818;stroke-width:0.5;" width="666.8555" x="628.5" y="473.0137"/><text fill="#000000" font-family="sans-serif" font-size="14" lengthAdjust="spacing" textLength="87.9238" x="917.9658" y="493.1211">ConflictHelper</text><line style="stroke:#181818;stroke-width:0.5;" x1="629.5" x2="1294.3555" y1="501.6348" y2="501.6348"/><text fill="#000000" font-family="sans-serif" font-size="14" lengthAdjust="spacing" textLength="4.6621" x="634.5" y="520.7422">-</text><text fill="#000000" font-family="sans-serif" font-size="14" lengthAdjust="spacing" text-decoration="underline" textLength="113.6201" x="639.1621" y="520.7422">scanner : Scanner</text><line style="stroke:#181818;stroke-width:0.5;" x1="629.5" x2="1294.3555" y1="528.2559" y2="528.2559"/><text fill="#000000" font-family="sans-serif" font-size="14" lengthAdjust="spacing" textLength="4.6621" x="634.5" y="547.3633">-</text><text fill="#000000" font-family="sans-serif" font-size="14" lengthAdjust="spacing" text-decoration="underline" textLength="159.5303" x="639.1621" y="547.3633">getContextLabel() : String</text><text fill="#000000" font-family="sans-serif" font-size="14" lengthAdjust="spacing" textLength="8.1758" x="634.5" y="565.9844">+</text><text fill="#000000" font-family="sans-serif" font-size="14" lengthAdjust="spacing" text-decoration="underline" textLength="214.7783" x="642.6758" y="565.9844">setScanner(testScanner: Scanner)</text><text fill="#000000" font-family="sans-serif" font-size="14" lengthAdjust="spacing" textLength="8.1758" x="634.5" y="584.6055">+</text><text fill="#000000" font-family="sans-serif" font-size="14" lengthAdjust="spacing" text-decoration="underline" textLength="646.6797" x="642.6758" y="584.6055">getUserChoiceForAddIngredient(similarIngredient: ArrayList&lt;Ingredient&gt;, newIngredient: Ingredient) : int</text><text fill="#000000" font-family="sans-serif" font-size="14" lengthAdjust="spacing" textLength="8.1758" x="634.5" y="603.2266">+</text><text fill="#000000" font-family="sans-serif" font-size="14" lengthAdjust="spacing" text-decoration="underline" textLength="627.1973" x="642.6758" y="603.2266">getUserChoiceForDeleteIngredient(similarIngredient: ArrayList&lt;Ingredient&gt;, newItem: Ingredient) : int</text><text fill="#000000" font-family="sans-serif" font-size="14" lengthAdjust="spacing" textLength="8.1758" x="634.5" y="621.8477">+</text><text fill="#000000" font-family="sans-serif" font-size="14" lengthAdjust="spacing" text-decoration="underline" textLength="610.8525" x="642.6758" y="621.8477">getUserChoiceForEditIngredient(similarIngredient: ArrayList&lt;Ingredient&gt;, newItem: Ingredient) : int</text><text fill="#000000" font-family="sans-serif" font-size="14" lengthAdjust="spacing" textLength="8.1758" x="634.5" y="640.4688">+</text><text fill="#000000" font-family="sans-serif" font-size="14" lengthAdjust="spacing" text-decoration="underline" textLength="553.2324" x="642.6758" y="640.4688">getUserChoiceForAddRecipe(similarRecipe: ArrayList&lt;Recipe&gt;, newRecipe: Recipe) : int</text><text fill="#000000" font-family="sans-serif" font-size="14" lengthAdjust="spacing" textLength="8.1758" x="634.5" y="659.0898">+</text><text fill="#000000" font-family="sans-serif" font-size="14" lengthAdjust="spacing" text-decoration="underline" textLength="568.791" x="642.6758" y="659.0898">getUserChoiceForDeleteRecipe(similarRecipe: ArrayList&lt;Recipe&gt;, newRecipe: Recipe) : int</text><text fill="#000000" font-family="sans-serif" font-size="14" lengthAdjust="spacing" textLength="8.1758" x="634.5" y="677.7109">+</text><text fill="#000000" font-family="sans-serif" font-size="14" lengthAdjust="spacing" text-decoration="underline" textLength="552.4463" x="642.6758" y="677.7109">getUserChoiceForEditRecipe(similarRecipe: ArrayList&lt;Recipe&gt;, newRecipe: Recipe) : int</text><text fill="#000000" font-family="sans-serif" font-size="14" lengthAdjust="spacing" textLength="4.6621" x="634.5" y="696.332">-</text><text fill="#000000" font-family="sans-serif" font-size="14" lengthAdjust="spacing" text-decoration="underline" textLength="261.4678" x="639.1621" y="696.332">parseQuantity(quantityStr: String) : double</text></g><!--reverse link {abstract} \n Catalogue<T> to RecipeBook--><g id="link_{abstract} \n Catalogue&lt;T&gt;_RecipeBook"><path codeLine="45" d="M285,393.1137 C285,425.6037 285,441.7037 285,472.8537 " fill="none" id="{abstract} \n Catalogue&lt;T&gt;-backto-RecipeBook" style="stroke:#181818;stroke-width:1.0;"/><polygon fill="none" points="285,375.1137,279,393.1137,291,393.1137,285,375.1137" style="stroke:#181818;stroke-width:1.0;"/></g><!--link RecipeBook to Recipe--><g id="link_RecipeBook_Recipe"><path codeLine="70" d="M285,704.2337 C285,724.1037 285,738.5737 285,757.8937 " fill="none" id="RecipeBook-to-Recipe" style="stroke:#181818;stroke-width:1.0;"/><polygon fill="#181818" points="285,763.8937,289,754.8937,285,758.8937,281,754.8937,285,763.8937" style="stroke:#181818;stroke-width:1.0;"/></g><!--link RecipeBook to CommandResult--><g id="link_RecipeBook_CommandResult"><path codeLine="71" d="M462.81,704.0337 C526.8,745.2437 589.8254,785.8353 637.4554,816.5053 " fill="none" id="RecipeBook-to-CommandResult" style="stroke:#181818;stroke-width:1.0;"/><polygon fill="#181818" points="642.5,819.7537,637.0986,811.5181,638.2961,817.0467,632.7675,818.2442,642.5,819.7537" style="stroke:#181818;stroke-width:1.0;"/></g><!--link RecipeBook to ConflictHelper--><g id="link_RecipeBook_ConflictHelper"><path codeLine="72" d="M523.67,588.5137 C558.48,588.5137 587.3,588.5137 622.12,588.5137 " fill="none" id="RecipeBook-to-ConflictHelper" style="stroke:#181818;stroke-width:1.0;"/><polygon fill="#181818" points="628.12,588.5137,619.12,584.5137,623.12,588.5137,619.12,592.5137,628.12,588.5137" style="stroke:#181818;stroke-width:1.0;"/></g><!--SRC=[lLPTRzem57tFhx3w5DHIxRb2aIWhMgLkqe2zxSKujs3LiPdjjB2k_tqtSKZiDA5PjOq7IAxF_V3rkSTiUGg4SSq4HEQ1ontLD2DCK6Ecrcg-pYtSCYMN_2UG3r6qe-o1Re1aAWLnoQYbGcro8CzHHF1JEfApPxesLbDcNyXtIMP7r6ILd26IL9ynuHOoGwx8L6jwkEF68g9UFcySuv5dtO2zBVpYKRzdlaif5ewmM8cq-4Niwe98U3g- -2451cXYpbIMKPakmEJ2XedhYcPAMf2sn2-nJtBZ0MbQfenvdPUR9HSW6QJulbPA09MdKc5peQh_6EGK_9vBb_573lfGbtH1O5yUWz9ec-UIMQxa1EjnwyaxOhxHeDLX1zrDgOxj-l25PX1B_0fYhaheYq-Z1J2-Wskb7ZpId7lcW1R7fkjo-Qg2ZGRrUB0FfDmUMRK8d4fkBOR6yGZN1neNEtA1NjVtg7Zg8JLawX46Wl4Wt59n47Vg2JIZfiEjTO8uhUPcZsJwJ2tRpbKkqnZsk0y43Mb5nNgl2GQePjibpxYWkg_uPi2TAUdZII0ikjvW5nMhNAFNff2MRwpZMCkDHagW48GgTblRavPoDPtldPB-4HecKrOvntQCgcSdnNdoQpps1YnwQHIVkNIcwhDhVL13S0Bt0EaQNLVgcm7TlTDvW8b7hNAzv3c_nBifjtWz8R9LWhmNdDbF87RragjXaYU6KIcXaB-bUmgN2qalb7nlx-WQH7VRYp1WA__OWZa-rq578HgZ5XkQRHLdC5TwYj9KCo8sZl2DfOSvxhRoKCrpKIQNzdJMZqxVtfiOUVR7AMyAUVoV2QUrH1fVHZfaeqkKXdVn7oSf-lRtKfJCBYVbQqwbvVQ0TxXxG6xxbswgyZN-yQl7pRjnn-Ea2j-sXhhZBoQjOOn-0m00]--></g></svg>