<svg xmlns="http://www.w3.org/2000/svg" xmlns:xlink="http://www.w3.org/1999/xlink" contentStyleType="text/css" height="685px" preserveAspectRatio="none" style="width:922px;height:685px;background:#FFFFFF;" version="1.1" viewBox="0 0 922 685" width="922px" zoomAndPan="magnify"><defs/><g><rect fill="#FFFFFF" height="93.873" style="stroke:#181818;stroke-width:1.0;" width="10" x="246.8149" y="71.9121"/><rect fill="#FFFFFF" height="156.4551" style="stroke:#181818;stroke-width:1.0;" width="10" x="246.8149" y="197.0762"/><rect fill="#FFFFFF" height="245.0371" style="stroke:#181818;stroke-width:1.0;" width="10" x="246.8149" y="384.8223"/><rect fill="#FFFFFF" height="31.291" style="stroke:#181818;stroke-width:1.0;" width="10" x="501.4097" y="103.2031"/><rect fill="#FFFFFF" height="93.873" style="stroke:#181818;stroke-width:1.0;" width="10" x="501.4097" y="228.3672"/><rect fill="#FFFFFF" height="182.4551" style="stroke:#181818;stroke-width:1.0;" width="10" x="501.4097" y="416.1133"/><rect fill="#FFFFFF" height="31.291" style="stroke:#181818;stroke-width:1.0;" width="10" x="684.4111" y="259.6582"/><rect fill="#FFFFFF" height="119.873" style="stroke:#181818;stroke-width:1.0;" width="10" x="811.5347" y="447.4043"/><rect fill="#FFFFFF" height="42.291" style="stroke:#181818;stroke-width:1.0;" width="10" x="816.5347" y="486.6953"/><line style="stroke:#181818;stroke-width:0.5;stroke-dasharray:5.0,5.0;" x1="26" x2="26" y1="38.6211" y2="647.8594"/><line style="stroke:#181818;stroke-width:0.5;stroke-dasharray:5.0,5.0;" x1="251.2046" x2="251.2046" y1="38.6211" y2="647.8594"/><line style="stroke:#181818;stroke-width:0.5;stroke-dasharray:5.0,5.0;" x1="505.6201" x2="505.6201" y1="38.6211" y2="647.8594"/><line style="stroke:#181818;stroke-width:0.5;stroke-dasharray:5.0,5.0;" x1="689.3457" x2="689.3457" y1="38.6211" y2="647.8594"/><line style="stroke:#181818;stroke-width:0.5;stroke-dasharray:5.0,5.0;" x1="816.4766" x2="816.4766" y1="38.6211" y2="647.8594"/><rect fill="#E2E2F0" height="32.6211" rx="2.5" ry="2.5" style="stroke:#181818;stroke-width:0.5;" width="43.5586" x="5" y="5"/><text fill="#000000" font-family="sans-serif" font-size="14" lengthAdjust="spacing" textLength="29.5586" x="12" y="27.1074">User</text><rect fill="#E2E2F0" height="32.6211" rx="2.5" ry="2.5" style="stroke:#181818;stroke-width:0.5;" width="43.5586" x="5" y="646.8594"/><text fill="#000000" font-family="sans-serif" font-size="14" lengthAdjust="spacing" textLength="29.5586" x="12" y="668.9668">User</text><rect fill="#E2E2F0" height="32.6211" rx="2.5" ry="2.5" style="stroke:#181818;stroke-width:0.5;" width="27.2207" x="238.2046" y="5"/><text fill="#000000" font-family="sans-serif" font-size="14" lengthAdjust="spacing" textLength="13.2207" x="245.2046" y="27.1074">Ui</text><rect fill="#E2E2F0" height="32.6211" rx="2.5" ry="2.5" style="stroke:#181818;stroke-width:0.5;" width="27.2207" x="238.2046" y="646.8594"/><text fill="#000000" font-family="sans-serif" font-size="14" lengthAdjust="spacing" textLength="13.2207" x="245.2046" y="668.9668">Ui</text><rect fill="#E2E2F0" height="32.6211" rx="2.5" ry="2.5" style="stroke:#181818;stroke-width:0.5;" width="85.5791" x="463.6201" y="5"/><text fill="#000000" font-family="sans-serif" font-size="14" lengthAdjust="spacing" textLength="71.5791" x="470.6201" y="27.1074">Commands</text><rect fill="#E2E2F0" height="32.6211" rx="2.5" ry="2.5" style="stroke:#181818;stroke-width:0.5;" width="85.5791" x="463.6201" y="646.8594"/><text fill="#000000" font-family="sans-serif" font-size="14" lengthAdjust="spacing" textLength="71.5791" x="470.6201" y="668.9668">Commands</text><rect fill="#E2E2F0" height="32.6211" rx="2.5" ry="2.5" style="stroke:#181818;stroke-width:0.5;" width="52.1309" x="663.3457" y="5"/><text fill="#000000" font-family="sans-serif" font-size="14" lengthAdjust="spacing" textLength="38.1309" x="670.3457" y="27.1074">Model</text><rect fill="#E2E2F0" height="32.6211" rx="2.5" ry="2.5" style="stroke:#181818;stroke-width:0.5;" width="52.1309" x="663.3457" y="646.8594"/><text fill="#000000" font-family="sans-serif" font-size="14" lengthAdjust="spacing" textLength="38.1309" x="670.3457" y="668.9668">Model</text><rect fill="#E2E2F0" height="32.6211" rx="2.5" ry="2.5" style="stroke:#181818;stroke-width:0.5;" width="182.1162" x="725.4766" y="5"/><text fill="#000000" font-family="sans-serif" font-size="14" lengthAdjust="spacing" textLength="168.1162" x="732.4766" y="27.1074">CatalogueContentManager</text><rect fill="#E2E2F0" height="32.6211" rx="2.5" ry="2.5" style="stroke:#181818;stroke-width:0.5;" width="182.1162" x="725.4766" y="646.8594"/><text fill="#000000" font-family="sans-serif" font-size="14" lengthAdjust="spacing" textLength="168.1162" x="732.4766" y="668.9668">CatalogueContentManager</text><rect fill="#FFFFFF" height="93.873" style="stroke:#181818;stroke-width:1.0;" width="10" x="246.8149" y="71.9121"/><rect fill="#FFFFFF" height="156.4551" style="stroke:#181818;stroke-width:1.0;" width="10" x="246.8149" y="197.0762"/><rect fill="#FFFFFF" height="245.0371" style="stroke:#181818;stroke-width:1.0;" width="10" x="246.8149" y="384.8223"/><rect fill="#FFFFFF" height="31.291" style="stroke:#181818;stroke-width:1.0;" width="10" x="501.4097" y="103.2031"/><rect fill="#FFFFFF" height="93.873" style="stroke:#181818;stroke-width:1.0;" width="10" x="501.4097" y="228.3672"/><rect fill="#FFFFFF" height="182.4551" style="stroke:#181818;stroke-width:1.0;" width="10" x="501.4097" y="416.1133"/><rect fill="#FFFFFF" height="31.291" style="stroke:#181818;stroke-width:1.0;" width="10" x="684.4111" y="259.6582"/><rect fill="#FFFFFF" height="119.873" style="stroke:#181818;stroke-width:1.0;" width="10" x="811.5347" y="447.4043"/><rect fill="#FFFFFF" height="42.291" style="stroke:#181818;stroke-width:1.0;" width="10" x="816.5347" y="486.6953"/><polygon fill="#181818" points="234.8149,67.9121,244.8149,71.9121,234.8149,75.9121,238.8149,71.9121" style="stroke:#181818;stroke-width:1.0;"/><line style="stroke:#181818;stroke-width:1.0;" x1="26.7793" x2="240.8149" y1="71.9121" y2="71.9121"/><text fill="#000000" font-family="sans-serif" font-size="13" font-weight="bold" lengthAdjust="spacing" textLength="7.23" x="33.7793" y="66.6494">1</text><text fill="#000000" font-family="sans-serif" font-size="13" lengthAdjust="spacing" textLength="61.9785" x="45.0093" y="66.6494">"inventory"</text><polygon fill="#181818" points="489.4097,99.2031,499.4097,103.2031,489.4097,107.2031,493.4097,103.2031" style="stroke:#181818;stroke-width:1.0;"/><line style="stroke:#181818;stroke-width:1.0;" x1="256.8149" x2="495.4097" y1="103.2031" y2="103.2031"/><text fill="#000000" font-family="sans-serif" font-size="13" font-weight="bold" lengthAdjust="spacing" textLength="7.23" x="263.8149" y="97.9404">2</text><text fill="#000000" font-family="sans-serif" font-size="13" lengthAdjust="spacing" textLength="130.0317" x="275.0449" y="97.9404">execute(INVENTORY)</text><polygon fill="#181818" points="267.8149,130.4941,257.8149,134.4941,267.8149,138.4941,263.8149,134.4941" style="stroke:#181818;stroke-width:1.0;"/><line style="stroke:#181818;stroke-width:1.0;" x1="261.8149" x2="505.4097" y1="134.4941" y2="134.4941"/><text fill="#000000" font-family="sans-serif" font-size="13" font-weight="bold" lengthAdjust="spacing" textLength="7.23" x="273.8149" y="129.2314">3</text><text fill="#000000" font-family="sans-serif" font-size="13" lengthAdjust="spacing" textLength="209.3647" x="285.0449" y="129.2314">CommandResult("now in Inventory")</text><polygon fill="#181818" points="37.7793,161.7852,27.7793,165.7852,37.7793,169.7852,33.7793,165.7852" style="stroke:#181818;stroke-width:1.0;"/><line style="stroke:#181818;stroke-width:1.0;" x1="31.7793" x2="250.8149" y1="165.7852" y2="165.7852"/><text fill="#000000" font-family="sans-serif" font-size="13" font-weight="bold" lengthAdjust="spacing" textLength="7.23" x="43.7793" y="160.5225">4</text><text fill="#000000" font-family="sans-serif" font-size="13" lengthAdjust="spacing" textLength="184.8057" x="55.0093" y="160.5225">print to user ("now in Inventory")</text><polygon fill="#181818" points="234.8149,193.0762,244.8149,197.0762,234.8149,201.0762,238.8149,197.0762" style="stroke:#181818;stroke-width:1.0;"/><line style="stroke:#181818;stroke-width:1.0;" x1="26.7793" x2="240.8149" y1="197.0762" y2="197.0762"/><text fill="#000000" font-family="sans-serif" font-size="13" font-weight="bold" lengthAdjust="spacing" textLength="7.23" x="33.7793" y="191.8135">5</text><text fill="#000000" font-family="sans-serif" font-size="13" lengthAdjust="spacing" textLength="67.063" x="45.0093" y="191.8135">"add egg 1"</text><polygon fill="#181818" points="489.4097,224.3672,499.4097,228.3672,489.4097,232.3672,493.4097,228.3672" style="stroke:#181818;stroke-width:1.0;"/><line style="stroke:#181818;stroke-width:1.0;" x1="256.8149" x2="495.4097" y1="228.3672" y2="228.3672"/><text fill="#000000" font-family="sans-serif" font-size="13" font-weight="bold" lengthAdjust="spacing" textLength="7.23" x="263.8149" y="223.1045">6</text><text fill="#000000" font-family="sans-serif" font-size="13" lengthAdjust="spacing" textLength="95.9512" x="275.0449" y="223.1045">execute("egg 1")</text><polygon fill="#181818" points="672.4111,255.6582,682.4111,259.6582,672.4111,263.6582,676.4111,259.6582" style="stroke:#181818;stroke-width:1.0;"/><line style="stroke:#181818;stroke-width:1.0;" x1="511.4097" x2="678.4111" y1="259.6582" y2="259.6582"/><text fill="#000000" font-family="sans-serif" font-size="13" font-weight="bold" lengthAdjust="spacing" textLength="7.23" x="518.4097" y="254.3955">7</text><text fill="#000000" font-family="sans-serif" font-size="13" lengthAdjust="spacing" textLength="142.7715" x="529.6396" y="254.3955">addIngredient("egg", "1")</text><polygon fill="#181818" points="522.4097,286.9492,512.4097,290.9492,522.4097,294.9492,518.4097,290.9492" style="stroke:#181818;stroke-width:1.0;"/><line style="stroke:#181818;stroke-width:1.0;" x1="516.4097" x2="688.4111" y1="290.9492" y2="290.9492"/><text fill="#000000" font-family="sans-serif" font-size="13" font-weight="bold" lengthAdjust="spacing" textLength="7.23" x="528.4097" y="285.6865">8</text><text fill="#000000" font-family="sans-serif" font-size="13" lengthAdjust="spacing" textLength="3.6118" x="539.6396" y="285.6865">&#160;</text><polygon fill="#181818" points="267.8149,318.2402,257.8149,322.2402,267.8149,326.2402,263.8149,322.2402" style="stroke:#181818;stroke-width:1.0;"/><line style="stroke:#181818;stroke-width:1.0;" x1="261.8149" x2="505.4097" y1="322.2402" y2="322.2402"/><text fill="#000000" font-family="sans-serif" font-size="13" font-weight="bold" lengthAdjust="spacing" textLength="7.23" x="273.8149" y="316.9775">9</text><text fill="#000000" font-family="sans-serif" font-size="13" lengthAdjust="spacing" textLength="3.6118" x="285.0449" y="316.9775">&#160;</text><polygon fill="#181818" points="37.7793,349.5313,27.7793,353.5313,37.7793,357.5313,33.7793,353.5313" style="stroke:#181818;stroke-width:1.0;"/><line style="stroke:#181818;stroke-width:1.0;" x1="31.7793" x2="250.8149" y1="353.5313" y2="353.5313"/><text fill="#000000" font-family="sans-serif" font-size="13" font-weight="bold" lengthAdjust="spacing" textLength="14.46" x="43.7793" y="348.2686">10</text><text fill="#000000" font-family="sans-serif" font-size="13" lengthAdjust="spacing" textLength="3.6118" x="62.2393" y="348.2686">&#160;</text><polygon fill="#181818" points="234.8149,380.8223,244.8149,384.8223,234.8149,388.8223,238.8149,384.8223" style="stroke:#181818;stroke-width:1.0;"/><line style="stroke:#181818;stroke-width:1.0;" x1="26.7793" x2="240.8149" y1="384.8223" y2="384.8223"/><text fill="#000000" font-family="sans-serif" font-size="13" font-weight="bold" lengthAdjust="spacing" textLength="14.46" x="33.7793" y="379.5596">11</text><text fill="#000000" font-family="sans-serif" font-size="13" lengthAdjust="spacing" textLength="30.1895" x="52.2393" y="379.5596">"bye"</text><polygon fill="#181818" points="489.4097,412.1133,499.4097,416.1133,489.4097,420.1133,493.4097,416.1133" style="stroke:#181818;stroke-width:1.0;"/><line style="stroke:#181818;stroke-width:1.0;" x1="256.8149" x2="495.4097" y1="416.1133" y2="416.1133"/><text fill="#000000" font-family="sans-serif" font-size="13" font-weight="bold" lengthAdjust="spacing" textLength="14.46" x="263.8149" y="410.8506">12</text><text fill="#000000" font-family="sans-serif" font-size="13" lengthAdjust="spacing" textLength="54.1899" x="282.2749" y="410.8506">execute()</text><polygon fill="#181818" points="799.5347,443.4043,809.5347,447.4043,799.5347,451.4043,803.5347,447.4043" style="stroke:#181818;stroke-width:1.0;"/><line style="stroke:#181818;stroke-width:1.0;" x1="511.4097" x2="805.5347" y1="447.4043" y2="447.4043"/><text fill="#000000" font-family="sans-serif" font-size="13" font-weight="bold" lengthAdjust="spacing" textLength="14.46" x="518.4097" y="442.1416">13</text><text fill="#000000" font-family="sans-serif" font-size="13" lengthAdjust="spacing" textLength="107.6753" x="536.8696" y="442.1416">saveAllCatalogues</text><line style="stroke:#181818;stroke-width:1.0;" x1="821.5347" x2="868.5347" y1="473.6953" y2="473.6953"/><line style="stroke:#181818;stroke-width:1.0;" x1="868.5347" x2="868.5347" y1="473.6953" y2="486.6953"/><line style="stroke:#181818;stroke-width:1.0;" x1="827.5347" x2="868.5347" y1="486.6953" y2="486.6953"/><polygon fill="#181818" points="837.5347,482.6953,827.5347,486.6953,837.5347,490.6953,833.5347,486.6953" style="stroke:#181818;stroke-width:1.0;"/><text fill="#000000" font-family="sans-serif" font-size="13" font-weight="bold" lengthAdjust="spacing" textLength="14.46" x="833.5347" y="468.4326">14</text><text fill="#000000" font-family="sans-serif" font-size="13" lengthAdjust="spacing" textLength="63.5781" x="851.9946" y="468.4326">saveToFile</text><line style="stroke:#181818;stroke-width:1.0;" x1="826.5347" x2="868.5347" y1="527.9863" y2="527.9863"/><line style="stroke:#181818;stroke-width:1.0;" x1="868.5347" x2="868.5347" y1="527.9863" y2="540.9863"/><line style="stroke:#181818;stroke-width:1.0;" x1="821.5347" x2="868.5347" y1="540.9863" y2="540.9863"/><polygon fill="#181818" points="831.5347,536.9863,821.5347,540.9863,831.5347,544.9863,827.5347,540.9863" style="stroke:#181818;stroke-width:1.0;"/><text fill="#000000" font-family="sans-serif" font-size="13" font-weight="bold" lengthAdjust="spacing" textLength="14.46" x="833.5347" y="522.7236">15</text><text fill="#000000" font-family="sans-serif" font-size="13" lengthAdjust="spacing" textLength="3.6118" x="851.9946" y="522.7236">&#160;</text><polygon fill="#181818" points="522.4097,563.2773,512.4097,567.2773,522.4097,571.2773,518.4097,567.2773" style="stroke:#181818;stroke-width:1.0;"/><line style="stroke:#181818;stroke-width:1.0;" x1="516.4097" x2="815.5347" y1="567.2773" y2="567.2773"/><text fill="#000000" font-family="sans-serif" font-size="13" font-weight="bold" lengthAdjust="spacing" textLength="14.46" x="528.4097" y="562.0146">16</text><text fill="#000000" font-family="sans-serif" font-size="13" lengthAdjust="spacing" textLength="3.6118" x="546.8696" y="562.0146">&#160;</text><polygon fill="#181818" points="267.8149,594.5684,257.8149,598.5684,267.8149,602.5684,263.8149,598.5684" style="stroke:#181818;stroke-width:1.0;"/><line style="stroke:#181818;stroke-width:1.0;" x1="261.8149" x2="505.4097" y1="598.5684" y2="598.5684"/><text fill="#000000" font-family="sans-serif" font-size="13" font-weight="bold" lengthAdjust="spacing" textLength="14.46" x="273.8149" y="593.3057">17</text><text fill="#000000" font-family="sans-serif" font-size="13" lengthAdjust="spacing" textLength="3.6118" x="292.2749" y="593.3057">&#160;</text><line style="stroke:#A80036;stroke-width:2.0;" x1="807.5347" x2="825.5347" y1="589.5684" y2="607.5684"/><line style="stroke:#A80036;stroke-width:2.0;" x1="807.5347" x2="825.5347" y1="607.5684" y2="589.5684"/><polygon fill="#181818" points="37.7793,625.8594,27.7793,629.8594,37.7793,633.8594,33.7793,629.8594" style="stroke:#181818;stroke-width:1.0;"/><line style="stroke:#181818;stroke-width:1.0;" x1="31.7793" x2="250.8149" y1="629.8594" y2="629.8594"/><text fill="#000000" font-family="sans-serif" font-size="13" font-weight="bold" lengthAdjust="spacing" textLength="14.46" x="43.7793" y="624.5967">18</text><text fill="#000000" font-family="sans-serif" font-size="13" lengthAdjust="spacing" textLength="3.6118" x="62.2393" y="624.5967">&#160;</text><line style="stroke:#A80036;stroke-width:2.0;" x1="497.4097" x2="515.4097" y1="620.8594" y2="638.8594"/><line style="stroke:#A80036;stroke-width:2.0;" x1="497.4097" x2="515.4097" y1="638.8594" y2="620.8594"/><line style="stroke:#A80036;stroke-width:2.0;" x1="242.8149" x2="260.8149" y1="620.8594" y2="638.8594"/><line style="stroke:#A80036;stroke-width:2.0;" x1="242.8149" x2="260.8149" y1="638.8594" y2="620.8594"/><!--SRC=[jLB1QiCm3BtxAqGkQs5TsJM7mGWRvD0EIZFOKOr5Qd3ipfQxzU-ND4sNi7O9WzriwxsdzoJVR9btFfxFTneDXrBVvRQSUteFP7AQIOM5mr8836nDA3VaXCWyEPWzGAPYY9JPas7h3f70dDKUcQg2o5IDI6nPef4-1lgaF31DqkNhqtBzidgRViDRb6WFhVZflY8VD4yYOpz06KZF7QT2qa-LfdLjCeQTKuQ1BOJQyv14vRiV3gK4AWgu7nSkQh13qHPMaeOOAlNK58wagimSoT4jH3t-4IeQGgTbrtG3wOzkO2w_PjuSQ5pQePW9CcfR14giuIhX0WqMzL8yxkbHwtFTTuGkSyILzy4sQ_kiDFs7Vc_4Vr1j9pPAfx_SYkBPsSDL_F3wJ_mBtwchNv_55m00]--></g></svg>