<svg xmlns="http://www.w3.org/2000/svg" xmlns:xlink="http://www.w3.org/1999/xlink" contentStyleType="text/css" height="983px" preserveAspectRatio="none" style="width:771px;height:983px;background:#FFFFFF;" version="1.1" viewBox="0 0 771 983" width="771px" zoomAndPan="magnify"><defs/><g><!--cluster storage--><g id="cluster_storage"><path d="M8.5,6.0137 L60.0723,6.0137 A3.75,3.75 0 0 1 62.5723,8.5137 L69.5723,30.6348 L761.5,30.6348 A2.5,2.5 0 0 1 764,33.1348 L764,973.5137 A2.5,2.5 0 0 1 761.5,976.0137 L8.5,976.0137 A2.5,2.5 0 0 1 6,973.5137 L6,8.5137 A2.5,2.5 0 0 1 8.5,6.0137 " fill="none" style="stroke:#000000;stroke-width:1.5;"/><line style="stroke:#000000;stroke-width:1.5;" x1="6" x2="69.5723" y1="30.6348" y2="30.6348"/><text fill="#000000" font-family="sans-serif" font-size="14" font-weight="bold" lengthAdjust="spacing" textLength="50.5723" x="10" y="23.1211">storage</text></g><!--class CatalogueContentManager--><g id="elem_CatalogueContentManager"><rect codeLine="5" fill="#F1F1F1" height="417.043" id="CatalogueContentManager" rx="2.5" ry="2.5" style="stroke:#181818;stroke-width:0.5;" width="589.0693" x="158.5" y="43.0137"/><text fill="#000000" font-family="sans-serif" font-size="14" lengthAdjust="spacing" textLength="168.1162" x="368.9766" y="63.1211">CatalogueContentManager</text><line style="stroke:#181818;stroke-width:0.5;" x1="159.5" x2="746.5693" y1="71.6348" y2="71.6348"/><text fill="#000000" font-family="sans-serif" font-size="14" lengthAdjust="spacing" textLength="136.1514" x="164.5" y="90.7422">-String directoryName</text><text fill="#000000" font-family="sans-serif" font-size="14" lengthAdjust="spacing" textLength="161.834" x="164.5" y="109.3633">-String inventoryFileName</text><text fill="#000000" font-family="sans-serif" font-size="14" lengthAdjust="spacing" textLength="175.0684" x="164.5" y="127.9844">-String recipeBookFileName</text><text fill="#000000" font-family="sans-serif" font-size="14" lengthAdjust="spacing" textLength="96.5098" x="164.5" y="146.6055">-Path basePath</text><text fill="#000000" font-family="sans-serif" font-size="14" lengthAdjust="spacing" textLength="145.5166" x="164.5" y="165.2266">-Path inventoryFilePath</text><text fill="#000000" font-family="sans-serif" font-size="14" lengthAdjust="spacing" textLength="158.751" x="164.5" y="183.8477">-Path recipeBookFilePath</text><line style="stroke:#181818;stroke-width:0.5;" x1="159.5" x2="746.5693" y1="191.3613" y2="191.3613"/><text fill="#000000" font-family="sans-serif" font-size="14" lengthAdjust="spacing" textLength="185.6162" x="164.5" y="210.4688">+CatalogueContentManager()</text><text fill="#000000" font-family="sans-serif" font-size="14" lengthAdjust="spacing" textLength="228.3955" x="164.5" y="229.0898">+Inventory loadInventory(): Inventory</text><text fill="#000000" font-family="sans-serif" font-size="14" lengthAdjust="spacing" textLength="577.0693" x="164.5" y="247.7109">+&lt;T extends Inventory&gt; T loadConsumablesCatalogue(Path filePath, Supplier&lt;T&gt; catalogue)</text><text fill="#000000" font-family="sans-serif" font-size="14" lengthAdjust="spacing" textLength="282.1055" x="164.5" y="266.332">+RecipeBook loadRecipeBook(): RecipeBook</text><text fill="#000000" font-family="sans-serif" font-size="14" lengthAdjust="spacing" textLength="342.8223" x="164.5" y="284.9531">+List&lt;String&gt; loadRawCatalogueContent(Path filePath)</text><text fill="#000000" font-family="sans-serif" font-size="14" lengthAdjust="spacing" textLength="243.9746" x="164.5" y="303.5742">+void saveToFile(Catalogue catalogue)</text><text fill="#000000" font-family="sans-serif" font-size="14" lengthAdjust="spacing" textLength="230.2959" x="164.5" y="322.1953">-void checkDirectoryExistence(): void</text><text fill="#000000" font-family="sans-serif" font-size="14" lengthAdjust="spacing" textLength="276.2334" x="164.5" y="340.8164">-void checkFileExistence(Path filePath): void</text><text fill="#000000" font-family="sans-serif" font-size="14" lengthAdjust="spacing" textLength="251.7676" x="164.5" y="359.4375">+void setBasePath(Path basePath): void</text><text fill="#000000" font-family="sans-serif" font-size="14" lengthAdjust="spacing" textLength="349.0088" x="164.5" y="378.0586">+void setInventoryFilePath(Path inventoryFilePath): void</text><text fill="#000000" font-family="sans-serif" font-size="14" lengthAdjust="spacing" textLength="380.1465" x="164.5" y="396.6797">+void setRecipeBookFilePath(Path recipeBookFilePath): void</text><text fill="#000000" font-family="sans-serif" font-size="14" lengthAdjust="spacing" textLength="166.9404" x="164.5" y="415.3008">+Path getBasePath(): Path</text><text fill="#000000" font-family="sans-serif" font-size="14" lengthAdjust="spacing" textLength="215.1748" x="164.5" y="433.9219">+Path getInventoryFilePath(): Path</text><text fill="#000000" font-family="sans-serif" font-size="14" lengthAdjust="spacing" textLength="233.0781" x="164.5" y="452.543">+Path getRecipeBookFilePath(): Path</text></g><!--class Inventory--><g id="elem_Inventory"><rect codeLine="28" fill="#F1F1F1" height="63.2422" id="Inventory" rx="2.5" ry="2.5" style="stroke:#181818;stroke-width:0.5;" width="325.2637" x="22.5" y="539.0137"/><text fill="#000000" font-family="sans-serif" font-size="14" lengthAdjust="spacing" textLength="57.5859" x="156.3389" y="559.1211">Inventory</text><line style="stroke:#181818;stroke-width:0.5;" x1="23.5" x2="346.7637" y1="567.6348" y2="567.6348"/><line style="stroke:#181818;stroke-width:0.5;" x1="23.5" x2="346.7637" y1="575.6348" y2="575.6348"/><text fill="#000000" font-family="sans-serif" font-size="14" lengthAdjust="spacing" textLength="313.2637" x="28.5" y="594.7422">+addItem(Ingredient ingredient, boolean flag): void</text></g><!--class RecipeBook--><g id="elem_RecipeBook"><rect codeLine="32" fill="#F1F1F1" height="63.2422" id="RecipeBook" rx="2.5" ry="2.5" style="stroke:#181818;stroke-width:0.5;" width="283.2158" x="382.5" y="539.0137"/><text fill="#000000" font-family="sans-serif" font-size="14" lengthAdjust="spacing" textLength="75.4893" x="486.3633" y="559.1211">RecipeBook</text><line style="stroke:#181818;stroke-width:0.5;" x1="383.5" x2="664.7158" y1="567.6348" y2="567.6348"/><line style="stroke:#181818;stroke-width:0.5;" x1="383.5" x2="664.7158" y1="575.6348" y2="575.6348"/><text fill="#000000" font-family="sans-serif" font-size="14" lengthAdjust="spacing" textLength="271.2158" x="388.5" y="594.7422">+addItem(Recipe recipe, boolean flag): void</text></g><!--class Ingredient--><g id="elem_Ingredient"><rect codeLine="36" fill="#F1F1F1" height="100.4844" id="Ingredient" rx="2.5" ry="2.5" style="stroke:#181818;stroke-width:0.5;" width="242.7402" x="65.5" y="860.0137"/><text fill="#000000" font-family="sans-serif" font-size="14" lengthAdjust="spacing" textLength="62.2686" x="155.7358" y="880.1211">Ingredient</text><line style="stroke:#181818;stroke-width:0.5;" x1="66.5" x2="307.2402" y1="888.6348" y2="888.6348"/><text fill="#000000" font-family="sans-serif" font-size="14" lengthAdjust="spacing" textLength="80.1445" x="71.5" y="907.7422">-String name</text><text fill="#000000" font-family="sans-serif" font-size="14" lengthAdjust="spacing" textLength="72.3721" x="71.5" y="926.3633">-int quantity</text><line style="stroke:#181818;stroke-width:0.5;" x1="66.5" x2="307.2402" y1="933.877" y2="933.877"/><text fill="#000000" font-family="sans-serif" font-size="14" lengthAdjust="spacing" textLength="230.7402" x="71.5" y="952.9844">+Ingredient(String name, int quantity)</text></g><!--class Recipe--><g id="elem_Recipe"><rect codeLine="42" fill="#F1F1F1" height="100.4844" id="Recipe" rx="2.5" ry="2.5" style="stroke:#181818;stroke-width:0.5;" width="369.5811" x="324" y="681.0137"/><text fill="#000000" font-family="sans-serif" font-size="14" lengthAdjust="spacing" textLength="43.5791" x="487.001" y="701.1211">Recipe</text><line style="stroke:#181818;stroke-width:0.5;" x1="325" x2="692.5811" y1="709.6348" y2="709.6348"/><text fill="#000000" font-family="sans-serif" font-size="14" lengthAdjust="spacing" textLength="120.5996" x="330" y="728.7422">-String recipeName</text><text fill="#000000" font-family="sans-serif" font-size="14" lengthAdjust="spacing" textLength="177.4473" x="330" y="747.3633">-List&lt;Ingredient&gt; ingredients</text><line style="stroke:#181818;stroke-width:0.5;" x1="325" x2="692.5811" y1="754.877" y2="754.877"/><text fill="#000000" font-family="sans-serif" font-size="14" lengthAdjust="spacing" textLength="357.5811" x="330" y="773.9844">+Recipe(String recipeName, List&lt;Ingredient&gt; ingredients)</text></g><!--class Catalogue--><g id="elem_Catalogue"><rect codeLine="48" fill="#F1F1F1" height="81.8633" id="Catalogue" rx="2.5" ry="2.5" style="stroke:#181818;stroke-width:0.5;" width="246.6367" x="385.5" y="869.0137"/><text fill="#000000" font-family="sans-serif" font-size="14" lengthAdjust="spacing" textLength="63.8271" x="476.9048" y="889.1211">Catalogue</text><line style="stroke:#181818;stroke-width:0.5;" x1="386.5" x2="631.1367" y1="897.6348" y2="897.6348"/><line style="stroke:#181818;stroke-width:0.5;" x1="386.5" x2="631.1367" y1="905.6348" y2="905.6348"/><text fill="#000000" font-family="sans-serif" font-size="14" lengthAdjust="spacing" textLength="152.8994" x="391.5" y="924.7422">+String getType(): String</text><text fill="#000000" font-family="sans-serif" font-size="14" lengthAdjust="spacing" textLength="234.6367" x="391.5" y="943.3633">+String getCatalogueContent(): String</text></g><!--class IngredientCatalogue--><g id="elem_IngredientCatalogue"><rect codeLine="53" fill="#F1F1F1" height="44.6211" id="IngredientCatalogue" rx="2.5" ry="2.5" style="stroke:#181818;stroke-width:0.5;" width="132.0957" x="157" y="708.5137"/><text fill="#000000" font-family="sans-serif" font-size="14" lengthAdjust="spacing" textLength="126.0957" x="160" y="728.6211">IngredientCatalogue</text><line style="stroke:#181818;stroke-width:0.5;" x1="158" x2="288.0957" y1="737.1348" y2="737.1348"/><line style="stroke:#181818;stroke-width:0.5;" x1="158" x2="288.0957" y1="745.1348" y2="745.1348"/></g><!--class Parser--><g id="elem_Parser"><rect fill="#F1F1F1" height="44.6211" id="Parser" rx="2.5" ry="2.5" style="stroke:#181818;stroke-width:0.5;" width="47.2344" x="700.5" y="548.0137"/><text fill="#000000" font-family="sans-serif" font-size="14" lengthAdjust="spacing" textLength="41.2344" x="703.5" y="568.1211">Parser</text><line style="stroke:#181818;stroke-width:0.5;" x1="701.5" x2="746.7344" y1="576.6348" y2="576.6348"/><line style="stroke:#181818;stroke-width:0.5;" x1="701.5" x2="746.7344" y1="584.6348" y2="584.6348"/></g><!--link CatalogueContentManager to Inventory--><g id="link_CatalogueContentManager_Inventory"><path codeLine="56" d="M277.23,460.4237 C251.38,490.9937 231.7134,514.2614 214.8834,534.1714 " fill="none" id="CatalogueContentManager-to-Inventory" style="stroke:#181818;stroke-width:1.0;"/><polygon fill="#181818" points="211.01,538.7537,219.8749,534.4626,214.2378,534.9351,213.7652,529.2981,211.01,538.7537" style="stroke:#181818;stroke-width:1.0;"/><text fill="#000000" font-family="sans-serif" font-size="13" lengthAdjust="spacing" textLength="31.0781" x="250" y="505.042">loads</text></g><!--link CatalogueContentManager to RecipeBook--><g id="link_CatalogueContentManager_RecipeBook"><path codeLine="57" d="M499.57,460.4237 C506.41,490.9937 511.3385,512.9888 515.7985,532.8988 " fill="none" id="CatalogueContentManager-to-RecipeBook" style="stroke:#181818;stroke-width:1.0;"/><polygon fill="#181818" points="517.11,538.7537,519.0459,529.097,516.017,533.8746,511.2394,530.8457,517.11,538.7537" style="stroke:#181818;stroke-width:1.0;"/><text fill="#000000" font-family="sans-serif" font-size="13" lengthAdjust="spacing" textLength="31.0781" x="511" y="505.042">loads</text></g><!--link Inventory to Ingredient--><g id="link_Inventory_Ingredient"><path codeLine="58" d="M147.03,602.1637 C125.53,622.0737 100.66,650.0137 89,681.0137 C73.35,722.6137 74.74,738.9237 89,781.0137 C98.84,810.0437 114.288,833.0958 133.208,855.1958 " fill="none" id="Inventory-to-Ingredient" style="stroke:#181818;stroke-width:1.0;"/><polygon fill="#181818" points="137.11,859.7537,134.2955,850.3155,133.8583,855.9554,128.2184,855.5182,137.11,859.7537" style="stroke:#181818;stroke-width:1.0;"/><text fill="#000000" font-family="sans-serif" font-size="13" lengthAdjust="spacing" textLength="48.4199" x="90" y="736.542">contains</text></g><!--link RecipeBook to Recipe--><g id="link_RecipeBook_Recipe"><path codeLine="59" d="M521.11,602.0737 C519,624.3837 516.656,649.1204 514.216,674.8704 " fill="none" id="RecipeBook-to-Recipe" style="stroke:#181818;stroke-width:1.0;"/><polygon fill="#181818" points="513.65,680.8437,518.4812,672.2611,514.1217,675.866,510.5169,671.5065,513.65,680.8437" style="stroke:#181818;stroke-width:1.0;"/><text fill="#000000" font-family="sans-serif" font-size="13" lengthAdjust="spacing" textLength="48.4199" x="518" y="647.042">contains</text></g><!--link Recipe to Ingredient--><g id="link_Recipe_Ingredient"><path codeLine="60" d="M419.73,781.0837 C374.97,805.6837 326.1679,832.5133 281.4179,857.1133 " fill="none" id="Recipe-to-Ingredient" style="stroke:#181818;stroke-width:1.0;"/><polygon fill="#181818" points="276.16,860.0037,285.9738,859.1734,280.5416,857.595,282.12,852.1628,276.16,860.0037" style="stroke:#181818;stroke-width:1.0;"/><text fill="#000000" font-family="sans-serif" font-size="13" lengthAdjust="spacing" textLength="48.4199" x="358" y="826.042">contains</text></g><!--link Inventory to IngredientCatalogue--><g id="link_Inventory_IngredientCatalogue"><path codeLine="61" d="M192.33,602.0737 C199.79,633.2037 206.9722,663.18 213.5722,690.7 " fill="none" id="Inventory-to-IngredientCatalogue" style="stroke:#181818;stroke-width:1.0;"/><polygon fill="none" points="217.77,708.2037,219.4067,689.3007,207.7376,692.0993,217.77,708.2037" style="stroke:#181818;stroke-width:1.0;"/></g><!--link RecipeBook to Catalogue--><g id="link_RecipeBook_Catalogue"><path codeLine="62" d="M616.51,602.1237 C652.99,619.2537 691.11,644.6637 712,681.0137 C734.15,719.5437 733.47,742.0937 712,781.0137 C690.52,819.9537 667.5362,840.2202 629.5262,860.4702 " fill="none" id="RecipeBook-to-Catalogue" style="stroke:#181818;stroke-width:1.0;"/><polygon fill="none" points="613.64,868.9337,632.3473,865.7656,626.705,855.1749,613.64,868.9337" style="stroke:#181818;stroke-width:1.0;"/></g><!--link Recipe to Catalogue--><g id="link_Recipe_Catalogue"><path codeLine="63" d="M509,781.3137 C509,808.9337 509,824.9337 509,850.9037 " fill="none" id="Recipe-to-Catalogue" style="stroke:#181818;stroke-width:1.0;"/><polygon fill="none" points="509,868.9037,515,850.9037,503,850.9037,509,868.9037" style="stroke:#181818;stroke-width:1.0;"/></g><!--link IngredientCatalogue to Catalogue--><g id="link_IngredientCatalogue_Catalogue"><path codeLine="64" d="M239.04,753.6737 C256.08,775.4237 284.83,808.6937 316,830.0137 C338.11,845.1437 347.0497,850.9766 372.0597,861.7966 " fill="none" id="IngredientCatalogue-to-Catalogue" style="stroke:#181818;stroke-width:1.0;"/><polygon fill="none" points="388.58,868.9437,374.4421,856.2898,369.6774,867.3033,388.58,868.9437" style="stroke:#181818;stroke-width:1.0;"/></g><!--link CatalogueContentManager to Parser--><g id="link_CatalogueContentManager_Parser"><path codeLine="66" d="M630.74,460.4237 C661.07,495.8937 684.3611,523.1431 701.4511,543.1331 " fill="none" id="CatalogueContentManager-to-Parser" style="stroke:#181818;stroke-width:1.0;"/><polygon fill="#181818" points="705.35,547.6937,702.542,538.2536,702.1009,543.8932,696.4613,543.4522,705.35,547.6937" style="stroke:#181818;stroke-width:1.0;"/><text fill="#000000" font-family="sans-serif" font-size="13" lengthAdjust="spacing" textLength="29.6182" x="673" y="505.042">Uses</text></g><!--SRC=[ZPNTZfim48NlUGfhhnmraNeTHKZTtLP2QglLXZx0nCmIAyIcsAIRRlVTQtvjWsdAJO3vvipnP6oEF4F2UCKAZDI9Yn8gE1DMW5AVjAxueTQOC2ds_3UIZr5K0Zj1ZaHfMJM_Rn4nLykJ1z1GoBp61oaq2lqDX46gdcck3TaRJP6JZ5V8ZCJrEvnn7kRYOl9D-0ilC8oOV5xYlPId0FC4-aWEeB2vcRxtn4E0B-qH7vOMILSEammLI24X6v_eQcj33hvB2RuQhKpPS4pIDjbKKVKP3WMgiJ9jNRxqtjPaNvTbmR7QfJ5X0-JwUHuNr6hQnyQHVN8oldAbTrsduou7VarNxjjmwrqapuY22wQowI0TCqFsDXtEZiXEZyDOV7ur1b0mR1msyI3UY5lIjpD96qoXlk_7Wdf3iimdqt6XuIbQLdYUpHDTcBEvHWlcZck3J2PoGEP6bzc09HT-ZvnjRQVvpL62B4iqdcaYyWepRWZJak5sJGvI5WY2l1IGkwlob9sv34btuRvD_odfs0aSEy8_9hYXVjOWDDTNR_iE6jJ9MtluQcareRBT2YPdLBl5RAdOQP-QxLqwKrh_Ko1Wpsv2jzUzhXc9z5gskwrx4qHc9u2FB_mHqy8zjlIrs6nYP-IsxUcZRcOue-IcMA5ETXoEBJ4VDGrST9oJRjN2q0qbj-AVEDI6UK73XQAXIAYj4-nch-wUe59OtHdhFnIgw3tw2m00]--></g></svg>