<svg xmlns="http://www.w3.org/2000/svg" xmlns:xlink="http://www.w3.org/1999/xlink" contentStyleType="text/css" height="546px" preserveAspectRatio="none" style="width:418px;height:546px;background:#FFFFFF;" version="1.1" viewBox="0 0 418 546" width="418.8px" zoomAndPan="magnify"><defs/><g><!--cluster storage--><g id="cluster_storage"><path d="M5.1,3.6082 L36.0434,3.6082 A2.25,2.25 0 0 1 37.5434,5.1082 L41.7434,18.3809 L375.3,18.3809 A1.5,1.5 0 0 1 376.8,19.8809 L376.8,444.3082 A1.5,1.5 0 0 1 375.3,445.8082 L5.1,445.8082 A1.5,1.5 0 0 1 3.6,444.3082 L3.6,5.1082 A1.5,1.5 0 0 1 5.1,3.6082 " fill="none" style="stroke:#000000;stroke-width:0.8999999999999999;"/><line style="stroke:#000000;stroke-width:0.8999999999999999;" x1="3.6" x2="41.7434" y1="18.3809" y2="18.3809"/><text fill="#000000" font-family="sans-serif" font-size="8.4" font-weight="bold" lengthAdjust="spacing" textLength="30.3434" x="6" y="13.8727">storage</text></g><!--class CatalogueContentManager--><g id="elem_CatalogueContentManager"><rect codeLine="9" fill="#F1F1F1" height="250.2258" id="CatalogueContentManager" rx="1.5" ry="1.5" style="stroke:#181818;stroke-width:0.3;" width="353.4416" x="13.5" y="25.8082"/><text fill="#000000" font-family="sans-serif" font-size="8.4" lengthAdjust="spacing" textLength="100.8697" x="139.7859" y="37.8727">CatalogueContentManager</text><line style="stroke:#181818;stroke-width:0.3;" x1="14.1" x2="366.3416" y1="42.9809" y2="42.9809"/><text fill="#000000" font-family="sans-serif" font-size="8.4" lengthAdjust="spacing" textLength="81.6908" x="17.1" y="54.4453">-String directoryName</text><text fill="#000000" font-family="sans-serif" font-size="8.4" lengthAdjust="spacing" textLength="97.1004" x="17.1" y="65.618">-String inventoryFileName</text><text fill="#000000" font-family="sans-serif" font-size="8.4" lengthAdjust="spacing" textLength="105.041" x="17.1" y="76.7906">-String recipeBookFileName</text><text fill="#000000" font-family="sans-serif" font-size="8.4" lengthAdjust="spacing" textLength="57.9059" x="17.1" y="87.9633">-Path basePath</text><text fill="#000000" font-family="sans-serif" font-size="8.4" lengthAdjust="spacing" textLength="87.31" x="17.1" y="99.1359">-Path inventoryFilePath</text><text fill="#000000" font-family="sans-serif" font-size="8.4" lengthAdjust="spacing" textLength="95.2506" x="17.1" y="110.3086">-Path recipeBookFilePath</text><line style="stroke:#181818;stroke-width:0.3;" x1="14.1" x2="366.3416" y1="114.8168" y2="114.8168"/><text fill="#000000" font-family="sans-serif" font-size="8.4" lengthAdjust="spacing" textLength="111.3697" x="17.1" y="126.2813">+CatalogueContentManager()</text><text fill="#000000" font-family="sans-serif" font-size="8.4" lengthAdjust="spacing" textLength="137.0373" x="17.1" y="137.4539">+Inventory loadInventory(): Inventory</text><text fill="#000000" font-family="sans-serif" font-size="8.4" lengthAdjust="spacing" textLength="346.2416" x="17.1" y="148.6266">+&lt;T extends Inventory&gt; T loadConsumablesCatalogue(Path filePath, Supplier&lt;T&gt; catalogue)</text><text fill="#000000" font-family="sans-serif" font-size="8.4" lengthAdjust="spacing" textLength="169.2633" x="17.1" y="159.7992">+RecipeBook loadRecipeBook(): RecipeBook</text><text fill="#000000" font-family="sans-serif" font-size="8.4" lengthAdjust="spacing" textLength="205.6934" x="17.1" y="170.9719">+List&lt;String&gt; loadRawCatalogueContent(Path filePath)</text><text fill="#000000" font-family="sans-serif" font-size="8.4" lengthAdjust="spacing" textLength="146.3848" x="17.1" y="182.1445">+void saveToFile(Catalogue catalogue)</text><text fill="#000000" font-family="sans-serif" font-size="8.4" lengthAdjust="spacing" textLength="138.1775" x="17.1" y="193.3172">-void checkDirectoryExistence(): void</text><text fill="#000000" font-family="sans-serif" font-size="8.4" lengthAdjust="spacing" textLength="165.74" x="17.1" y="204.4898">-void checkFileExistence(Path filePath): void</text><text fill="#000000" font-family="sans-serif" font-size="8.4" lengthAdjust="spacing" textLength="151.0605" x="17.1" y="215.6625">+void setBasePath(Path basePath): void</text><text fill="#000000" font-family="sans-serif" font-size="8.4" lengthAdjust="spacing" textLength="209.4053" x="17.1" y="226.8352">+void setInventoryFilePath(Path inventoryFilePath): void</text><text fill="#000000" font-family="sans-serif" font-size="8.4" lengthAdjust="spacing" textLength="228.0879" x="17.1" y="238.0078">+void setRecipeBookFilePath(Path recipeBookFilePath): void</text><text fill="#000000" font-family="sans-serif" font-size="8.4" lengthAdjust="spacing" textLength="100.1643" x="17.1" y="249.1805">+Path getBasePath(): Path</text><text fill="#000000" font-family="sans-serif" font-size="8.4" lengthAdjust="spacing" textLength="129.1049" x="17.1" y="260.3531">+Path getInventoryFilePath(): Path</text><text fill="#000000" font-family="sans-serif" font-size="8.4" lengthAdjust="spacing" textLength="139.8469" x="17.1" y="271.5258">+Path getRecipeBookFilePath(): Path</text></g><!--class Inventory--><g id="elem_Inventory"><rect codeLine="32" fill="#F1F1F1" height="17.1727" id="Inventory" rx="1.5" ry="1.5" style="stroke:#181818;stroke-width:0.3;" width="38.1516" x="141" y="365.4082"/><text fill="#000000" font-family="sans-serif" font-size="8.4" lengthAdjust="spacing" textLength="34.5516" x="142.8" y="377.4727">Inventory</text></g><!--class RecipeBook--><g id="elem_RecipeBook"><rect codeLine="36" fill="#F1F1F1" height="17.1727" id="RecipeBook" rx="1.5" ry="1.5" style="stroke:#181818;stroke-width:0.3;" width="48.8936" x="191.1" y="312.0082"/><text fill="#000000" font-family="sans-serif" font-size="8.4" lengthAdjust="spacing" textLength="45.2936" x="192.9" y="324.0727">RecipeBook</text></g><!--class Ingredient--><g id="elem_Ingredient"><rect codeLine="40" fill="#F1F1F1" height="17.1727" id="Ingredient" rx="1.5" ry="1.5" style="stroke:#181818;stroke-width:0.3;" width="40.9611" x="96" y="418.8082"/><text fill="#000000" font-family="sans-serif" font-size="8.4" lengthAdjust="spacing" textLength="37.3611" x="97.8" y="430.8727">Ingredient</text></g><!--class Recipe--><g id="elem_Recipe"><rect codeLine="44" fill="#F1F1F1" height="17.1727" id="Recipe" rx="1.5" ry="1.5" style="stroke:#181818;stroke-width:0.3;" width="29.7475" x="200.4" y="365.4082"/><text fill="#000000" font-family="sans-serif" font-size="8.4" lengthAdjust="spacing" textLength="26.1475" x="202.2" y="377.4727">Recipe</text></g><!--class IngredientCatalogue--><g id="elem_IngredientCatalogue"><rect codeLine="51" fill="#F1F1F1" height="17.1727" id="IngredientCatalogue" rx="1.5" ry="1.5" style="stroke:#181818;stroke-width:0.3;" width="79.2574" x="108.6" y="472.2082"/><text fill="#000000" font-family="sans-serif" font-size="8.4" lengthAdjust="spacing" textLength="75.6574" x="110.4" y="484.2727">IngredientCatalogue</text></g><!--class Catalogue--><g id="elem_Catalogue"><rect fill="#F1F1F1" height="17.1727" id="Catalogue" rx="1.5" ry="1.5" style="stroke:#181818;stroke-width:0.3;" width="41.8963" x="198.6" y="525.6082"/><text fill="#000000" font-family="sans-serif" font-size="8.4" lengthAdjust="spacing" textLength="38.2963" x="200.4" y="537.6727">Catalogue</text></g><!--class Parser--><g id="elem_Parser"><rect fill="#F1F1F1" height="17.1727" id="Parser" rx="1.5" ry="1.5" style="stroke:#181818;stroke-width:0.3;" width="28.3406" x="386.7" y="312.0082"/><text fill="#000000" font-family="sans-serif" font-size="8.4" lengthAdjust="spacing" textLength="24.7406" x="388.5" y="324.0727">Parser</text></g><!--link CatalogueContentManager to Inventory--><g id="link_CatalogueContentManager_Inventory"><path codeLine="54" d="M160.2,276.0442 C160.2,313.6582 160.2,345.5842 160.2,361.6042 " fill="none" id="CatalogueContentManager-to-Inventory" style="stroke:#181818;stroke-width:0.6;"/><polygon fill="#181818" points="160.2,365.2042,162.6,359.8042,160.2,362.2042,157.8,359.8042,160.2,365.2042" style="stroke:#181818;stroke-width:0.6;"/><text fill="#000000" font-family="sans-serif" font-size="7.8" lengthAdjust="spacing" textLength="18.6469" x="141" y="318.2412">loads</text></g><!--link CatalogueContentManager to RecipeBook--><g id="link_CatalogueContentManager_RecipeBook"><path codeLine="55" d="M215.4,276.0982 C215.4,291.1042 215.4,300.3322 215.4,308.3242 " fill="none" id="CatalogueContentManager-to-RecipeBook" style="stroke:#181818;stroke-width:0.6;"/><polygon fill="#181818" points="215.4,311.9242,217.8,306.5242,215.4,308.9242,213,306.5242,215.4,311.9242" style="stroke:#181818;stroke-width:0.6;"/><text fill="#000000" font-family="sans-serif" font-size="7.8" lengthAdjust="spacing" textLength="18.6469" x="196.2" y="291.6252">loads</text></g><!--link Inventory to Ingredient--><g id="link_Inventory_Ingredient"><path codeLine="56" d="M153.798,382.9402 C153.798,397.4662 153.798,424.8082 153.798,424.8082 C153.798,424.8082 149.184,424.8082 140.448,424.8082 " fill="none" id="Inventory-to-Ingredient" style="stroke:#181818;stroke-width:0.6;"/><polygon fill="#181818" points="136.848,424.8082,142.248,427.2082,139.848,424.8082,142.248,422.4082,136.848,424.8082" style="stroke:#181818;stroke-width:0.6;"/><text fill="#000000" font-family="sans-serif" font-size="7.8" lengthAdjust="spacing" textLength="29.052" x="124.398" y="409.9632">contains</text></g><!--link RecipeBook to Recipe--><g id="link_RecipeBook_Recipe"><path codeLine="57" d="M215.4,329.5282 C215.4,339.4222 215.4,351.7762 215.4,361.6762 " fill="none" id="RecipeBook-to-Recipe" style="stroke:#181818;stroke-width:0.6;"/><polygon fill="#181818" points="215.4,365.2762,217.8,359.8762,215.4,362.2762,213,359.8762,215.4,365.2762" style="stroke:#181818;stroke-width:0.6;"/><text fill="#000000" font-family="sans-serif" font-size="7.8" lengthAdjust="spacing" textLength="29.052" x="186" y="345.0192">contains</text></g><!--link Recipe to Ingredient--><g id="link_Recipe_Ingredient"><path codeLine="58" d="M207.9,382.9702 C207.9,398.9122 207.9,430.8082 207.9,430.8082 C207.9,430.8082 167.514,430.8082 140.532,430.8082 " fill="none" id="Recipe-to-Ingredient" style="stroke:#181818;stroke-width:0.6;"/><polygon fill="#181818" points="136.932,430.8082,142.332,433.2082,139.932,430.8082,142.332,428.4082,136.932,430.8082" style="stroke:#181818;stroke-width:0.6;"/><text fill="#000000" font-family="sans-serif" font-size="7.8" lengthAdjust="spacing" textLength="29.052" x="166.938" y="428.4252">contains</text></g><!--link Inventory to IngredientCatalogue--><g id="link_Inventory_IngredientCatalogue"><path codeLine="59" d="M166.602,382.8502 C166.602,402.8722 166.602,441.1042 166.602,461.2462 " fill="none" id="Inventory-to-IngredientCatalogue" style="stroke:#181818;stroke-width:0.6;"/><polygon fill="none" points="166.602,472.0462,170.202,461.2462,163.002,461.2462,166.602,472.0462" style="stroke:#181818;stroke-width:0.6;"/></g><!--link RecipeBook to Catalogue--><g id="link_RecipeBook_Catalogue"><path codeLine="60" d="M235.05,329.6122 C235.05,364.4362 235.05,480.3322 235.05,514.8022 " fill="none" id="RecipeBook-to-Catalogue" style="stroke:#181818;stroke-width:0.6;"/><polygon fill="none" points="235.05,525.6022,238.65,514.8022,231.45,514.8022,235.05,525.6022" style="stroke:#181818;stroke-width:0.6;"/></g><!--link Recipe to Catalogue--><g id="link_Recipe_Catalogue"><path codeLine="61" d="M222.9,382.9522 C222.9,410.9602 222.9,486.7222 222.9,514.6942 " fill="none" id="Recipe-to-Catalogue" style="stroke:#181818;stroke-width:0.6;"/><polygon fill="none" points="222.9,525.4942,226.5,514.6942,219.3,514.6942,222.9,525.4942" style="stroke:#181818;stroke-width:0.6;"/></g><!--link IngredientCatalogue to Catalogue--><g id="link_IngredientCatalogue_Catalogue"><path codeLine="62" d="M187.872,481.2082 C202.422,481.2082 215.4,481.2082 215.4,481.2082 C215.4,481.2082 215.4,499.6582 215.4,514.7422 " fill="none" id="IngredientCatalogue-to-Catalogue" style="stroke:#181818;stroke-width:0.6;"/><polygon fill="none" points="215.4,525.5422,219,514.7422,211.8,514.7422,215.4,525.5422" style="stroke:#181818;stroke-width:0.6;"/></g><!--link CatalogueContentManager to Parser--><g id="link_CatalogueContentManager_Parser"><path codeLine="64" d="M303.75,276.0922 C303.75,301.7002 303.75,321.0082 303.75,321.0082 C303.75,321.0082 356.172,321.0082 383.088,321.0082 " fill="none" id="CatalogueContentManager-to-Parser" style="stroke:#181818;stroke-width:0.6;"/><polygon fill="#181818" points="386.688,321.0082,381.288,318.6082,383.688,321.0082,381.288,323.4082,386.688,321.0082" style="stroke:#181818;stroke-width:0.6;"/><text fill="#000000" font-family="sans-serif" font-size="7.8" lengthAdjust="spacing" textLength="17.7709" x="304.764" y="318.6252">Uses</text></g><!--SRC=[XPJHRfim58Rl_HH7lQBQa7eTHKXhjqcHkgbgiWTmp1bOCJQodQnPrdUV3G4Cc8ORCESx__bj_L3o785npGIIqZzZLTipL5ZjKHjY3bpMLDCAcA36VB5My_tHueOfkUL_4Hv8m0WkqPvhX5g9ir_4QahRKX5IKtQW1OAnIllxXO2xcYdmH2qLgZZYav8MfVr1fKFqbV5N2bldH1QGSutCIPn_qWhdPIvFhj-LltE1SSJryneVbJf4c1TgIzXJW_vX-dua7WF6qYFYqz8ca_k0sNGJG2YQzwlaVZMK0doz0tnpMhaPoXdiccOtnHmhkXTe-ib9u_BtrTjds1xhMd3Kwrq6h8D2Fw_zXXhDOUaT3QkWuvaRksvFEcjxw9_fpiSsmdadnNCmz8GxvKymwJjZzj8MPoMomzSk5j_Ud06K3Br3Nu_YNdmWntOcRPqfj8_NM2IZa2ppcsbSadYAbXLUPtbA5d8srsZ08d3ja4aYEsHkT9cDM0hXTn9yraEQBsHU3R8LAszaeJ7dJk23xg3qaS8Geqk8BVrsqZGBlA-Q69kR7S5-mfP1g9NjTxK2zq-rbCkM2ze7jJXqGocScFxBOkSmd-YuM3LMYPth1BjvM7SlL1lKTyxxBuE6l9F_]--></g></svg>