<svg xmlns="http://www.w3.org/2000/svg" xmlns:xlink="http://www.w3.org/1999/xlink" contentStyleType="text/css" height="725.9px" preserveAspectRatio="none" style="width:781px;height:725px;background:#FFFFFF;" version="1.1" viewBox="0 0 781 725" width="781.2px" zoomAndPan="magnify"><defs/><g><!--cluster controller--><g id="cluster_controller"><path d="M510.65,79.1096 L556.5458,79.1096 A2.625,2.625 0 0 1 558.2958,80.8596 L563.1958,96.3443 L774.55,96.3443 A1.75,1.75 0 0 1 776.3,98.0943 L776.3,609.7096 A1.75,1.75 0 0 1 774.55,611.4596 L510.65,611.4596 A1.75,1.75 0 0 1 508.9,609.7096 L508.9,80.8596 A1.75,1.75 0 0 1 510.65,79.1096 " fill="none" style="stroke:#000000;stroke-width:1.0499999999999998;"/><line style="stroke:#000000;stroke-width:1.0499999999999998;" x1="508.9" x2="563.1958" y1="96.3443" y2="96.3443"/><text fill="#000000" font-family="sans-serif" font-size="9.8" font-weight="bold" lengthAdjust="spacing" textLength="45.1958" x="511.7" y="91.0848">controller</text></g><!--cluster commands--><g id="cluster_commands"><path d="M5.95,4.2096 L58.3871,4.2096 A2.625,2.625 0 0 1 60.1371,5.9596 L65.0371,21.4443 L455.35,21.4443 A1.75,1.75 0 0 1 457.1,23.1943 L457.1,263.9096 A1.75,1.75 0 0 1 455.35,265.6596 L5.95,265.6596 A1.75,1.75 0 0 1 4.2,263.9096 L4.2,5.9596 A1.75,1.75 0 0 1 5.95,4.2096 " fill="none" style="stroke:#000000;stroke-width:1.0499999999999998;"/><line style="stroke:#000000;stroke-width:1.0499999999999998;" x1="4.2" x2="65.0371" y1="21.4443" y2="21.4443"/><text fill="#000000" font-family="sans-serif" font-size="9.8" font-weight="bold" lengthAdjust="spacing" textLength="51.7371" x="7" y="16.1848">commands</text></g><!--class KitchenCTRL--><g id="elem_KitchenCTRL"><rect codeLine="25" fill="#F1F1F1" height="278.8953" id="KitchenCTRL" rx="1.75" ry="1.75" style="stroke:#181818;stroke-width:0.3499999999999999;" width="245.1169" x="520.1" y="105.0096"/><text fill="#000000" font-family="sans-serif" font-size="9.8" lengthAdjust="spacing" textLength="58.2784" x="613.5192" y="119.0848">KitchenCTRL</text><line style="stroke:#181818;stroke-width:0.3499999999999999;" x1="520.8" x2="764.5169" y1="125.0443" y2="125.0443"/><text fill="#000000" font-family="sans-serif" font-size="9.8" lengthAdjust="spacing" textLength="3.2635" x="524.3" y="138.4195">-</text><text fill="#000000" font-family="sans-serif" font-size="9.8" lengthAdjust="spacing" text-decoration="underline" textLength="82.7976" x="527.5635" y="138.4195">Inventory inventory</text><text fill="#000000" font-family="sans-serif" font-size="9.8" lengthAdjust="spacing" textLength="3.2635" x="524.3" y="151.4543">-</text><text fill="#000000" font-family="sans-serif" font-size="9.8" lengthAdjust="spacing" text-decoration="underline" textLength="104.5939" x="527.5635" y="151.4543">RecipeBook recipeBook</text><text fill="#000000" font-family="sans-serif" font-size="9.8" lengthAdjust="spacing" textLength="3.2635" x="524.3" y="164.4891">-</text><text fill="#000000" font-family="sans-serif" font-size="9.8" lengthAdjust="spacing" text-decoration="underline" textLength="89.3341" x="527.5635" y="164.4891">Recipe activeRecipe</text><text fill="#000000" font-family="sans-serif" font-size="9.8" lengthAdjust="spacing" textLength="62.6281" x="524.3" y="177.5238">-Parser parser</text><line style="stroke:#181818;stroke-width:0.3499999999999999;" x1="520.8" x2="764.5169" y1="182.7834" y2="182.7834"/><text fill="#000000" font-family="sans-serif" font-size="9.8" lengthAdjust="spacing" textLength="5.723" x="524.3" y="196.1586">+</text><text fill="#000000" font-family="sans-serif" font-size="9.8" lengthAdjust="spacing" text-decoration="underline" textLength="145.9808" x="530.023" y="196.1586">getCurrentScreen() : ScreenState</text><text fill="#000000" font-family="sans-serif" font-size="9.8" lengthAdjust="spacing" textLength="5.723" x="524.3" y="209.1934">+</text><text fill="#000000" font-family="sans-serif" font-size="9.8" lengthAdjust="spacing" text-decoration="underline" textLength="163.4083" x="530.023" y="209.1934">setCurrentScreen(ScreenState) : void</text><text fill="#000000" font-family="sans-serif" font-size="9.8" lengthAdjust="spacing" textLength="5.723" x="524.3" y="222.2281">+</text><text fill="#000000" font-family="sans-serif" font-size="9.8" lengthAdjust="spacing" text-decoration="underline" textLength="133.4437" x="530.023" y="222.2281">setActiveRecipe(Recipe) : void</text><text fill="#000000" font-family="sans-serif" font-size="9.8" lengthAdjust="spacing" textLength="5.723" x="524.3" y="235.2629">+</text><text fill="#000000" font-family="sans-serif" font-size="9.8" lengthAdjust="spacing" text-decoration="underline" textLength="116.0161" x="530.023" y="235.2629">getActiveRecipe() : Recipe</text><text fill="#000000" font-family="sans-serif" font-size="9.8" lengthAdjust="spacing" textLength="5.723" x="524.3" y="248.2977">+</text><text fill="#000000" font-family="sans-serif" font-size="9.8" lengthAdjust="spacing" text-decoration="underline" textLength="132.8981" x="530.023" y="248.2977">requireActiveRecipe() : Recipe</text><text fill="#000000" font-family="sans-serif" font-size="9.8" lengthAdjust="spacing" textLength="5.723" x="524.3" y="261.3324">+</text><text fill="#000000" font-family="sans-serif" font-size="9.8" lengthAdjust="spacing" text-decoration="underline" textLength="112.1928" x="530.023" y="261.3324">main(args : String[]) : void</text><text fill="#000000" font-family="sans-serif" font-size="9.8" lengthAdjust="spacing" textLength="52.5602" x="524.3" y="274.3672">+run() : void</text><text fill="#000000" font-family="sans-serif" font-size="9.8" lengthAdjust="spacing" textLength="122.835" x="524.3" y="287.402">+initializeCatalogues() : void</text><text fill="#000000" font-family="sans-serif" font-size="9.8" lengthAdjust="spacing" textLength="54.9958" x="524.3" y="300.4367">-start() : void</text><text fill="#000000" font-family="sans-serif" font-size="9.8" lengthAdjust="spacing" textLength="198.2538" x="524.3" y="313.4715">-runCommandLoopUntilExitCommand() : void</text><text fill="#000000" font-family="sans-serif" font-size="9.8" lengthAdjust="spacing" textLength="51.1868" x="524.3" y="326.5062">-exit() : void</text><text fill="#000000" font-family="sans-serif" font-size="9.8" lengthAdjust="spacing" textLength="236.7169" x="524.3" y="339.541">+getCatalogueByScreen(ScreenState) : Catalogue&lt;?&gt;</text><text fill="#000000" font-family="sans-serif" font-size="9.8" lengthAdjust="spacing" textLength="5.723" x="524.3" y="352.5758">+</text><text fill="#000000" font-family="sans-serif" font-size="9.8" lengthAdjust="spacing" text-decoration="underline" textLength="134.0035" x="530.023" y="352.5758">getRecipeBook() : RecipeBook</text><text fill="#000000" font-family="sans-serif" font-size="9.8" lengthAdjust="spacing" textLength="5.723" x="524.3" y="365.6105">+</text><text fill="#000000" font-family="sans-serif" font-size="9.8" lengthAdjust="spacing" text-decoration="underline" textLength="108.9389" x="530.023" y="365.6105">getInventory() : Inventory</text><text fill="#000000" font-family="sans-serif" font-size="9.8" lengthAdjust="spacing" textLength="5.723" x="524.3" y="378.6453">+</text><text fill="#000000" font-family="sans-serif" font-size="9.8" lengthAdjust="spacing" text-decoration="underline" textLength="200.4741" x="530.023" y="378.6453">getAllCatalogues() : ArrayList&lt;Catalogue&lt;?&gt;&gt;</text></g><!--class ScreenState--><g id="elem_ScreenState"><rect codeLine="48" fill="#F1F1F1" height="115.016" id="ScreenState" rx="1.75" ry="1.75" style="stroke:#181818;stroke-width:0.3499999999999999;" width="73.2054" x="563.15" y="485.4596"/><text fill="#000000" font-family="sans-serif" font-size="8.4" font-style="italic" lengthAdjust="spacing" textLength="56.0396" x="571.7329" y="498.024">&#171;enumeration&#187;</text><text fill="#000000" font-family="sans-serif" font-size="9.8" lengthAdjust="spacing" textLength="53.9335" x="572.7859" y="510.7074">ScreenState</text><line style="stroke:#181818;stroke-width:0.3499999999999999;" x1="563.85" x2="635.6554" y1="516.667" y2="516.667"/><text fill="#000000" font-family="sans-serif" font-size="9.8" lengthAdjust="spacing" textLength="50.6365" x="567.35" y="530.0422">WELCOME</text><text fill="#000000" font-family="sans-serif" font-size="9.8" lengthAdjust="spacing" textLength="57.173" x="567.35" y="543.077">INVENTORY</text><text fill="#000000" font-family="sans-serif" font-size="9.8" lengthAdjust="spacing" textLength="64.8054" x="567.35" y="556.1117">RECIPEBOOK</text><text fill="#000000" font-family="sans-serif" font-size="9.8" lengthAdjust="spacing" textLength="36.4868" x="567.35" y="569.1465">RECIPE</text><text fill="#000000" font-family="sans-serif" font-size="9.8" lengthAdjust="spacing" textLength="21.782" x="567.35" y="582.1812">EXIT</text><text fill="#000000" font-family="sans-serif" font-size="9.8" lengthAdjust="spacing" textLength="38.1233" x="567.35" y="595.216">INVALID</text></g><!--class Command--><g id="elem_Command"><rect codeLine="60" fill="#F1F1F1" height="33.0695" id="Command" rx="1.75" ry="1.75" style="stroke:#181818;stroke-width:0.3499999999999999;" width="52.1281" x="188.3" y="30.1096"/><text fill="#000000" font-family="sans-serif" font-size="9.8" lengthAdjust="spacing" textLength="41.406" x="192.2997" y="44.1848">{abstract}</text><text fill="#000000" font-family="sans-serif" font-size="9.8" lengthAdjust="spacing" textLength="45.2054" x="193.1228" y="57.2195">Command</text></g><!--class BackCommand--><g id="elem_BackCommand"><rect codeLine="63" fill="#F1F1F1" height="20.0348" id="BackCommand" rx="1.75" ry="1.75" style="stroke:#181818;stroke-width:0.3499999999999999;" width="71.1922" x="15.4" y="234.1596"/><text fill="#000000" font-family="sans-serif" font-size="9.8" lengthAdjust="spacing" textLength="66.9922" x="17.5" y="248.2348">BackCommand</text></g><!--class EditRecipeCommand--><g id="elem_EditRecipeCommand"><rect codeLine="66" fill="#F1F1F1" height="20.0348" id="EditRecipeCommand" rx="1.75" ry="1.75" style="stroke:#181818;stroke-width:0.3499999999999999;" width="96.7976" x="111.3" y="234.1596"/><text fill="#000000" font-family="sans-serif" font-size="9.8" lengthAdjust="spacing" textLength="92.5976" x="113.4" y="248.2348">EditRecipeCommand</text></g><!--class GoToCommand--><g id="elem_GoToCommand"><rect codeLine="69" fill="#F1F1F1" height="20.0348" id="GoToCommand" rx="1.75" ry="1.75" style="stroke:#181818;stroke-width:0.3499999999999999;" width="73.9149" x="232.4" y="234.1596"/><text fill="#000000" font-family="sans-serif" font-size="9.8" lengthAdjust="spacing" textLength="69.7149" x="234.5" y="248.2348">GoToCommand</text></g><!--class ListCommandsCommand--><g id="elem_ListCommandsCommand"><rect codeLine="72" fill="#F1F1F1" height="20.0348" id="ListCommandsCommand" rx="1.75" ry="1.75" style="stroke:#181818;stroke-width:0.3499999999999999;" width="114.761" x="331.1" y="234.1596"/><text fill="#000000" font-family="sans-serif" font-size="9.8" lengthAdjust="spacing" textLength="110.561" x="333.2" y="248.2348">ListCommandsCommand</text></g><!--class CommandResult--><g id="elem_CommandResult"><rect codeLine="75" fill="#F1F1F1" height="20.0348" id="CommandResult" rx="1.75" ry="1.75" style="stroke:#181818;stroke-width:0.3499999999999999;" width="77.1832" x="368.9" y="36.4096"/><text fill="#000000" font-family="sans-serif" font-size="9.8" lengthAdjust="spacing" textLength="72.9832" x="371" y="50.4848">CommandResult</text></g><!--class Ui--><g id="elem_Ui"><rect codeLine="5" fill="#F1F1F1" height="234.191" id="Ui" rx="1.75" ry="1.75" style="stroke:#181818;stroke-width:0.3499999999999999;" width="208.5487" x="284.2" y="425.6096"/><text fill="#000000" font-family="sans-serif" font-size="9.8" lengthAdjust="spacing" textLength="9.2545" x="383.8471" y="439.6848">Ui</text><line style="stroke:#181818;stroke-width:0.3499999999999999;" x1="284.9" x2="492.0487" y1="445.6443" y2="445.6443"/><text fill="#000000" font-family="sans-serif" font-size="9.8" lengthAdjust="spacing" textLength="21.5045" x="288.4" y="459.0195">+Ui()</text><text fill="#000000" font-family="sans-serif" font-size="9.8" lengthAdjust="spacing" textLength="122.2703" x="288.4" y="472.0543">+Ui(inStream : InputStream)</text><text fill="#000000" font-family="sans-serif" font-size="9.8" lengthAdjust="spacing" textLength="87.9655" x="288.4" y="485.0891">+showInitMessage()</text><text fill="#000000" font-family="sans-serif" font-size="9.8" lengthAdjust="spacing" textLength="65.6236" x="288.4" y="498.1238">+showDivider()</text><text fill="#000000" font-family="sans-serif" font-size="9.8" lengthAdjust="spacing" textLength="125.5386" x="288.4" y="511.1586">+getUserCommand() : String</text><text fill="#000000" font-family="sans-serif" font-size="9.8" lengthAdjust="spacing" textLength="200.1487" x="288.4" y="524.1934">+showResultToUser(result : CommandResult)</text><text fill="#000000" font-family="sans-serif" font-size="9.8" lengthAdjust="spacing" textLength="5.723" x="288.4" y="537.2281">+</text><text fill="#000000" font-family="sans-serif" font-size="9.8" lengthAdjust="spacing" text-decoration="underline" textLength="183.5586" x="294.123" y="537.2281">showScreenPrompt(screen : ScreenState)</text><text fill="#000000" font-family="sans-serif" font-size="9.8" lengthAdjust="spacing" textLength="5.723" x="288.4" y="550.2629">+</text><text fill="#000000" font-family="sans-serif" font-size="9.8" lengthAdjust="spacing" text-decoration="underline" textLength="110.0107" x="294.123" y="550.2629">showWelcomeMessage()</text><text fill="#000000" font-family="sans-serif" font-size="9.8" lengthAdjust="spacing" textLength="5.723" x="288.4" y="563.2977">+</text><text fill="#000000" font-family="sans-serif" font-size="9.8" lengthAdjust="spacing" text-decoration="underline" textLength="109.4796" x="294.123" y="563.2977">showInventoryMessage()</text><text fill="#000000" font-family="sans-serif" font-size="9.8" lengthAdjust="spacing" textLength="5.723" x="288.4" y="576.3324">+</text><text fill="#000000" font-family="sans-serif" font-size="9.8" lengthAdjust="spacing" text-decoration="underline" textLength="99.6748" x="294.123" y="576.3324">showRecipeMessage()</text><text fill="#000000" font-family="sans-serif" font-size="9.8" lengthAdjust="spacing" textLength="5.723" x="288.4" y="589.3672">+</text><text fill="#000000" font-family="sans-serif" font-size="9.8" lengthAdjust="spacing" text-decoration="underline" textLength="122.0119" x="294.123" y="589.3672">showRecipeBookMessage()</text><text fill="#000000" font-family="sans-serif" font-size="9.8" lengthAdjust="spacing" textLength="5.723" x="288.4" y="602.402">+</text><text fill="#000000" font-family="sans-serif" font-size="9.8" lengthAdjust="spacing" text-decoration="underline" textLength="120.3515" x="294.123" y="602.402">showWelcomeCommands()</text><text fill="#000000" font-family="sans-serif" font-size="9.8" lengthAdjust="spacing" textLength="5.723" x="288.4" y="615.4367">+</text><text fill="#000000" font-family="sans-serif" font-size="9.8" lengthAdjust="spacing" text-decoration="underline" textLength="119.8203" x="294.123" y="615.4367">showInventoryCommands()</text><text fill="#000000" font-family="sans-serif" font-size="9.8" lengthAdjust="spacing" textLength="5.723" x="288.4" y="628.4715">+</text><text fill="#000000" font-family="sans-serif" font-size="9.8" lengthAdjust="spacing" text-decoration="underline" textLength="110.0155" x="294.123" y="628.4715">showRecipeCommands()</text><text fill="#000000" font-family="sans-serif" font-size="9.8" lengthAdjust="spacing" textLength="5.723" x="288.4" y="641.5062">+</text><text fill="#000000" font-family="sans-serif" font-size="9.8" lengthAdjust="spacing" text-decoration="underline" textLength="132.3526" x="294.123" y="641.5062">showRecipeBookCommands()</text><text fill="#000000" font-family="sans-serif" font-size="9.8" lengthAdjust="spacing" textLength="114.6667" x="288.4" y="654.541">+showGoodbyeMessage()</text></g><!--class Recipe--><g id="elem_Recipe"><rect codeLine="84" fill="#F1F1F1" height="20.0348" id="Recipe" rx="1.75" ry="1.75" style="stroke:#181818;stroke-width:0.3499999999999999;" width="34.7054" x="371" y="702.1096"/><text fill="#000000" font-family="sans-serif" font-size="9.8" lengthAdjust="spacing" textLength="30.5054" x="373.1" y="716.1848">Recipe</text></g><!--reverse link Command to BackCommand--><g id="link_Command_BackCommand"><path codeLine="78" d="M175.5421,51.7297 C145.7221,55.5307 111.965,61.5816 99.4,73.5096 C52.311,118.2116 50.064,205.1516 50.701,234.0266 " fill="none" id="Command-backto-BackCommand" style="stroke:#181818;stroke-width:0.6999999999999998;"/><polygon fill="none" points="188.041,50.1366,175.0111,47.5634,176.0732,55.896,188.041,50.1366" style="stroke:#181818;stroke-width:0.6999999999999998;"/></g><!--reverse link Command to EditRecipeCommand--><g id="link_Command_EditRecipeCommand"><path codeLine="79" d="M206.3586,75.464 C195.4316,114.762 170.996,202.6386 162.267,234.0336 " fill="none" id="Command-backto-EditRecipeCommand" style="stroke:#181818;stroke-width:0.6999999999999998;"/><polygon fill="none" points="209.734,63.3246,202.3121,74.3389,210.4051,76.5892,209.734,63.3246" style="stroke:#181818;stroke-width:0.6999999999999998;"/></g><!--reverse link Command to GoToCommand--><g id="link_Command_GoToCommand"><path codeLine="80" d="M222.1375,75.4528 C233.2045,114.7508 257.957,202.6386 266.805,234.0336 " fill="none" id="Command-backto-GoToCommand" style="stroke:#181818;stroke-width:0.6999999999999998;"/><polygon fill="none" points="218.722,63.3246,218.0948,76.5913,226.1803,74.3143,218.722,63.3246" style="stroke:#181818;stroke-width:0.6999999999999998;"/></g><!--reverse link Command to ListCommandsCommand--><g id="link_Command_ListCommandsCommand"><path codeLine="81" d="M252.8642,48.19 C276.1392,49.653 297.269,54.4906 319.2,73.5096 C370.153,117.7006 384.216,204.9766 387.562,233.9846 " fill="none" id="Command-backto-ListCommandsCommand" style="stroke:#181818;stroke-width:0.6999999999999998;"/><polygon fill="none" points="240.289,47.3996,252.6007,52.3817,253.1277,43.9983,240.289,47.3996" style="stroke:#181818;stroke-width:0.6999999999999998;"/></g><!--link KitchenCTRL to Ui--><g id="link_KitchenCTRL_Ui"><path codeLine="87" d="M523.922,383.7986 C511.959,397.7776 502.6354,408.6912 490.9034,422.4042 " fill="none" id="KitchenCTRL-to-Ui" style="stroke:#181818;stroke-width:0.6999999999999998;"/><polygon fill="#181818" points="488.173,425.5956,494.3962,422.6287,490.4483,422.9361,490.141,418.9882,488.173,425.5956" style="stroke:#181818;stroke-width:0.6999999999999998;"/></g><!--link KitchenCTRL to ScreenState--><g id="link_KitchenCTRL_ScreenState"><path codeLine="88" d="M622.657,383.7986 C617.498,419.7016 612.8242,452.2172 608.6592,481.2112 " fill="none" id="KitchenCTRL-to-ScreenState" style="stroke:#181818;stroke-width:0.6999999999999998;"/><polygon fill="#181818" points="608.062,485.3686,611.7294,479.5307,608.5597,481.9041,606.1863,478.7344,608.062,485.3686" style="stroke:#181818;stroke-width:0.6999999999999998;"/></g><!--link BackCommand to Ui--><g id="link_BackCommand_Ui"><path codeLine="89" d="M52.073,254.5716 C54.985,278.8406 65.66,343.7306 99.4,383.6096 C147.931,440.9676 218.8146,479.566 280.1486,505.144 " fill="none" id="BackCommand-to-Ui" style="stroke:#181818;stroke-width:0.6999999999999998;stroke-dasharray:7.0,7.0;"/><polygon fill="#181818" points="284.025,506.7606,279.2881,501.7514,280.7946,505.4134,277.1326,506.92,284.025,506.7606" style="stroke:#181818;stroke-width:0.6999999999999998;"/></g><!--link EditRecipeCommand to Ui--><g id="link_EditRecipeCommand_Ui"><path codeLine="90" d="M162.344,254.5926 C169.372,278.0986 189.679,339.9016 220.5,383.6096 C238.588,409.2576 258.2883,431.1205 281.1293,453.1705 " fill="none" id="EditRecipeCommand-to-Ui" style="stroke:#181818;stroke-width:0.6999999999999998;stroke-dasharray:7.0,7.0;"/><polygon fill="#181818" points="284.151,456.0876,281.5631,449.6975,281.6329,453.6567,277.6737,453.7264,284.151,456.0876" style="stroke:#181818;stroke-width:0.6999999999999998;"/></g><!--link GoToCommand to Ui--><g id="link_GoToCommand_Ui"><path codeLine="91" d="M272.657,254.5016 C280.21,277.0696 300.132,335.6246 319.2,383.6096 C324.604,397.2176 328.8323,407.525 334.7753,421.56 " fill="none" id="GoToCommand-to-Ui" style="stroke:#181818;stroke-width:0.6999999999999998;stroke-dasharray:7.0,7.0;"/><polygon fill="#181818" points="336.413,425.4276,336.5348,418.5344,335.0483,422.2046,331.3781,420.718,336.413,425.4276" style="stroke:#181818;stroke-width:0.6999999999999998;"/></g><!--link ListCommandsCommand to Ui--><g id="link_ListCommandsCommand_Ui"><path codeLine="92" d="M388.5,254.5576 C388.5,281.0316 388.5,353.6636 388.5,421.2626 " fill="none" id="ListCommandsCommand-to-Ui" style="stroke:#181818;stroke-width:0.6999999999999998;stroke-dasharray:7.0,7.0;"/><polygon fill="#181818" points="388.5,425.4626,391.3,419.1626,388.5,421.9626,385.7,419.1626,388.5,425.4626" style="stroke:#181818;stroke-width:0.6999999999999998;"/></g><!--link Ui to CommandResult--><g id="link_Ui_CommandResult"><path codeLine="94" d="M446.376,425.5676 C451.332,411.7006 455.567,397.5186 458.5,383.6096 C486.948,248.7546 530.32,191.1446 458.5,73.5096 C453.978,66.1036 450.3771,62.5928 442.6421,58.6868 " fill="none" id="Ui-to-CommandResult" style="stroke:#181818;stroke-width:0.6999999999999998;stroke-dasharray:7.0,7.0;"/><polygon fill="#181818" points="438.893,56.7936,443.2545,62.1328,442.0173,58.3712,445.7788,57.134,438.893,56.7936" style="stroke:#181818;stroke-width:0.6999999999999998;"/></g><!--link Ui to Recipe--><g id="link_Ui_Recipe"><path codeLine="95" d="M388.5,660.2426 C388.5,677.5956 388.5,688.5506 388.5,697.8046 " fill="none" id="Ui-to-Recipe" style="stroke:#181818;stroke-width:0.6999999999999998;stroke-dasharray:7.0,7.0;"/><polygon fill="#181818" points="388.5,702.0046,391.3,695.7046,388.5,698.5046,385.7,695.7046,388.5,702.0046" style="stroke:#181818;stroke-width:0.6999999999999998;"/></g><!--link Ui to ScreenState--><g id="link_Ui_ScreenState"><path codeLine="96" d="M492.961,542.8596 C516.355,542.8596 535.549,542.8596 558.943,542.8596 " fill="none" id="Ui-to-ScreenState" style="stroke:#181818;stroke-width:0.6999999999999998;stroke-dasharray:7.0,7.0;"/><polygon fill="#181818" points="563.143,542.8596,556.843,540.0596,559.643,542.8596,556.843,545.6596,563.143,542.8596" style="stroke:#181818;stroke-width:0.6999999999999998;"/></g><!--SRC=[ZLLDZzem4BtdLrXxoce5whb2LC16gsZP1V7HRTNsOC88B18x7JkqbFBVQoTES3uMDPUCvxsnNyOpaptR0eaOHZ5uUsD3ageJII3P04fF7XXFATA4H36LSgGKiasc88m4Nx8_G3vuNewGDIDdZ-ZdOSty-yfYVAaGTFn74l8qKyNAud8lVeMSgHUGakx0TzoFxAZLOEdQWLfBm8b84igt_htUJk_4-EuQiG2PnMeb3C_7VA5PDg80xMQ3R6W2bX42y3aA_SM-p1TcsznOAggWJd-3E189DBHQCEH7u4hWgHjUGCHIk8MDXJXqu_PS-o7olOFVmOlTRuBcw2R1e4z2R3SdH_N5yr8Q7VI2wEjNAE8OqDvwKGJFJ4Lxu9FLOchzvkaHVLubbB3IgXEkOWXMPXU5q4Yn8nGBXp2dgA-UfFdBgu074wdhPv8XwdEB-oqgw7hLTRPiijsYq857mRQjY96ZoYzUtTnTWsjOZO_9UGW_CuRmNzo4CkvJtCcgCRxzw3WTi-BB6swcUv3HMFVpX2eQYrq6iith4QaegYv0xsihQ2f4kkQAnS5lfjnsRKI0Xhkac8igDOnFtUcl28DFmrPghsNa9AjMIYMpgiYS6BQgihgiE6waPOH8JrCcrS2LKcZHJG8yIzpY8eE1SG5InGGV3crhl0NJoUmboEtmzNFmkfejlkQhHJ09vy5uDdjsbhaPV0bNPS1e6ZxgdgnrPT75-W2dAU_ET2CLwgwvaE-yd8XtXChIje8kRjHOxta33hPCrMPB5-b9hCGDs6Im73mtQBKHNYUKKOE_lPwhk0sszBOfZjessA7LPBvGQEVIsNZS4TZh3VL_iUMw3i- -EuBSZFVxUMGxonPmCsjTNTcqaAT_piQiPR9qsd5YLztQ_W40]--></g></svg>